<svg width="26" height="26" viewBox="0 0 26 26" fill="none" xmlns="http://www.w3.org/2000/svg">
<path d="M2.84615 4.69247C2.35652 4.69247 1.88695 4.88698 1.54073 5.2332C1.1945 5.57941 1 6.04899 1 6.53861V23.1539C1 23.6435 1.1945 24.1131 1.54073 24.4593C1.88695 24.8055 2.35652 25 2.84615 25H23.1538C23.6435 25 24.1131 24.8055 24.4593 24.4593C24.8055 24.1131 25 23.6435 25 23.1539V6.53861C25 6.04899 24.8055 5.57941 24.4593 5.2332C24.1131 4.88698 23.6435 4.69247 23.1538 4.69247H19.4615" stroke="#2E1619" stroke-width="1.71429" stroke-linecap="round" stroke-linejoin="round"/>
<path d="M6.53857 1V8.38455" stroke="#2E1619" stroke-width="1.71429" stroke-linecap="round" stroke-linejoin="round"/>
<path d="M19.4617 1V8.38455" stroke="#2E1619" stroke-width="1.71429" stroke-linecap="round" stroke-linejoin="round"/>
<path d="M6.53857 4.69247H15.7693" stroke="#2E1619" stroke-width="1.71429" stroke-linecap="round" stroke-linejoin="round"/>
<path d="M6.53831 14.8464C7.0481 14.8464 7.46138 14.4331 7.46138 13.9233C7.46138 13.4135 7.0481 13.0003 6.53831 13.0003C6.02851 13.0003 5.61523 13.4135 5.61523 13.9233C5.61523 14.4331 6.02851 14.8464 6.53831 14.8464Z" stroke="#2E1619" stroke-width="1.71429" stroke-linecap="round" stroke-linejoin="round"/>
<path d="M13.0002 14.8464C13.51 14.8464 13.9233 14.4331 13.9233 13.9233C13.9233 13.4135 13.51 13.0003 13.0002 13.0003C12.4904 13.0003 12.0771 13.4135 12.0771 13.9233C12.0771 14.4331 12.4904 14.8464 13.0002 14.8464Z" stroke="#2E1619" stroke-width="1.71429" stroke-linecap="round" stroke-linejoin="round"/>
<path d="M19.4614 14.8464C19.9712 14.8464 20.3845 14.4331 20.3845 13.9233C20.3845 13.4135 19.9712 13.0003 19.4614 13.0003C18.9516 13.0003 18.5383 13.4135 18.5383 13.9233C18.5383 14.4331 18.9516 14.8464 19.4614 14.8464Z" stroke="#2E1619" stroke-width="1.71429" stroke-linecap="round" stroke-linejoin="round"/>
<path d="M6.53831 20.3846C7.0481 20.3846 7.46138 19.9713 7.46138 19.4615C7.46138 18.9517 7.0481 18.5384 6.53831 18.5384C6.02851 18.5384 5.61523 18.9517 5.61523 19.4615C5.61523 19.9713 6.02851 20.3846 6.53831 20.3846Z" stroke="#2E1619" stroke-width="1.71429" stroke-linecap="round" stroke-linejoin="round"/>
</svg>
