<svg width="30" height="31" viewBox="0 0 30 31" fill="none" xmlns="http://www.w3.org/2000/svg">
<mask id="path-1-inside-1_825_14448" fill="white">
<path d="M27.4354 16.7262C27.1983 16.4563 27.0675 16.1093 27.0675 15.75C27.0675 15.3907 27.1983 15.0437 27.4354 14.7737L29.3288 12.6437C29.5374 12.411 29.667 12.1182 29.6989 11.8073C29.7307 11.4964 29.6633 11.1833 29.5063 10.9131L26.5479 5.79519C26.3925 5.52527 26.1558 5.31132 25.8716 5.18383C25.5874 5.05633 25.2702 5.02182 24.9652 5.08519L22.1844 5.64727C21.8306 5.72038 21.4622 5.66145 21.1488 5.4816C20.8354 5.30175 20.5987 5.01342 20.4834 4.67102L19.5811 1.96414C19.4818 1.67035 19.2928 1.41517 19.0406 1.23468C18.7885 1.05419 18.486 0.95751 18.1759 0.95831H12.2592C11.9366 0.941475 11.6174 1.03068 11.3503 1.2123C11.0832 1.39393 10.8829 1.65798 10.78 1.96414L9.95169 4.67102C9.83632 5.01342 9.59961 5.30175 9.28623 5.4816C8.97286 5.66145 8.60449 5.72038 8.25065 5.64727L5.39586 5.08519C5.10676 5.04433 4.81203 5.08995 4.54881 5.2163C4.28559 5.34264 4.06565 5.54406 3.91669 5.79519L0.958358 10.9131C0.797366 11.1803 0.724978 11.4916 0.751545 11.8024C0.778111 12.1132 0.902271 12.4077 1.10627 12.6437L2.98482 14.7737C3.22196 15.0437 3.35274 15.3907 3.35274 15.75C3.35274 16.1093 3.22196 16.4563 2.98482 16.7262L1.10627 18.8562C0.902271 19.0922 0.778111 19.3867 0.751545 19.6975C0.724978 20.0084 0.797366 20.3196 0.958358 20.5869L3.91669 25.7048C4.07215 25.9747 4.30885 26.1886 4.59304 26.3161C4.87724 26.4436 5.19443 26.4781 5.4994 26.4148L8.28023 25.8527C8.63408 25.7796 9.00244 25.8385 9.31582 26.0184C9.62919 26.1982 9.8659 26.4865 9.98128 26.8289L10.8836 29.5358C10.9865 29.842 11.1868 30.106 11.4539 30.2877C11.721 30.4693 12.0402 30.5585 12.3627 30.5416H18.2794C18.5895 30.5424 18.892 30.4458 19.1442 30.2653C19.3963 30.0848 19.5854 29.8296 19.6846 29.5358L20.5869 26.8289C20.7023 26.4865 20.939 26.1982 21.2524 26.0184C21.5657 25.8385 21.9341 25.7796 22.2879 25.8527L25.0688 26.4148C25.3737 26.4781 25.6909 26.4436 25.9751 26.3161C26.2593 26.1886 26.496 25.9747 26.6515 25.7048L29.6098 20.5869C29.7669 20.3166 29.8343 20.0036 29.8024 19.6927C29.7705 19.3818 29.641 19.0889 29.4323 18.8562L27.4354 16.7262ZM25.2315 18.7083L26.4148 20.0396L24.5215 23.3233L22.7761 22.9683C21.7107 22.7505 20.6025 22.9315 19.6618 23.4769C18.7211 24.0222 18.0134 24.894 17.6729 25.9266L17.1109 27.5833H13.3242L12.7917 25.8971C12.4513 24.8644 11.7435 23.9926 10.8028 23.4473C9.8621 22.9019 8.75389 22.721 7.68857 22.9387L5.94315 23.2937L4.02023 20.0248L5.20357 18.6935C5.93125 17.8799 6.33355 16.8267 6.33355 15.7352C6.33355 14.6437 5.93125 13.5904 5.20357 12.7769L4.02023 11.4456L5.91357 8.19144L7.65898 8.54644C8.72431 8.7642 9.83251 8.58324 10.7732 8.0379C11.7139 7.49255 12.4217 6.6208 12.7621 5.5881L13.3242 3.91664H17.1109L17.6729 5.60289C18.0134 6.63559 18.7211 7.50735 19.6618 8.05269C20.6025 8.59803 21.7107 8.77899 22.7761 8.56123L24.5215 8.20623L26.4148 11.49L25.2315 12.8212C24.512 13.6329 24.1147 14.6801 24.1147 15.7648C24.1147 16.8495 24.512 17.8966 25.2315 18.7083ZM15.2175 9.83331C14.0473 9.83331 12.9034 10.1803 11.9304 10.8304C10.9574 11.4806 10.1991 12.4046 9.75124 13.4858C9.30342 14.5669 9.18625 15.7565 9.41455 16.9043C9.64284 18.052 10.2063 19.1062 11.0338 19.9337C11.8613 20.7612 12.9155 21.3247 14.0632 21.553C15.211 21.7813 16.4006 21.6641 17.4817 21.2163C18.5629 20.7684 19.4869 20.0101 20.1371 19.0371C20.7872 18.0641 21.1342 16.9202 21.1342 15.75C21.1342 14.1808 20.5108 12.6759 19.4012 11.5663C18.2916 10.4567 16.7867 9.83331 15.2175 9.83331ZM15.2175 18.7083C14.6324 18.7083 14.0605 18.5348 13.574 18.2097C13.0875 17.8847 12.7083 17.4226 12.4844 16.8821C12.2605 16.3415 12.2019 15.7467 12.316 15.1728C12.4302 14.599 12.7119 14.0719 13.1257 13.6581C13.5394 13.2444 14.0665 12.9626 14.6404 12.8485C15.2142 12.7343 15.8091 12.7929 16.3496 13.0168C16.8902 13.2407 17.3522 13.6199 17.6773 14.1064C18.0024 14.5929 18.1759 15.1649 18.1759 15.75C18.1759 16.5346 17.8642 17.287 17.3094 17.8418C16.7546 18.3966 16.0021 18.7083 15.2175 18.7083Z"/>
</mask>
<path d="M27.4354 16.7262C27.1983 16.4563 27.0675 16.1093 27.0675 15.75C27.0675 15.3907 27.1983 15.0437 27.4354 14.7737L29.3288 12.6437C29.5374 12.411 29.667 12.1182 29.6989 11.8073C29.7307 11.4964 29.6633 11.1833 29.5063 10.9131L26.5479 5.79519C26.3925 5.52527 26.1558 5.31132 25.8716 5.18383C25.5874 5.05633 25.2702 5.02182 24.9652 5.08519L22.1844 5.64727C21.8306 5.72038 21.4622 5.66145 21.1488 5.4816C20.8354 5.30175 20.5987 5.01342 20.4834 4.67102L19.5811 1.96414C19.4818 1.67035 19.2928 1.41517 19.0406 1.23468C18.7885 1.05419 18.486 0.95751 18.1759 0.95831H12.2592C11.9366 0.941475 11.6174 1.03068 11.3503 1.2123C11.0832 1.39393 10.8829 1.65798 10.78 1.96414L9.95169 4.67102C9.83632 5.01342 9.59961 5.30175 9.28623 5.4816C8.97286 5.66145 8.60449 5.72038 8.25065 5.64727L5.39586 5.08519C5.10676 5.04433 4.81203 5.08995 4.54881 5.2163C4.28559 5.34264 4.06565 5.54406 3.91669 5.79519L0.958358 10.9131C0.797366 11.1803 0.724978 11.4916 0.751545 11.8024C0.778111 12.1132 0.902271 12.4077 1.10627 12.6437L2.98482 14.7737C3.22196 15.0437 3.35274 15.3907 3.35274 15.75C3.35274 16.1093 3.22196 16.4563 2.98482 16.7262L1.10627 18.8562C0.902271 19.0922 0.778111 19.3867 0.751545 19.6975C0.724978 20.0084 0.797366 20.3196 0.958358 20.5869L3.91669 25.7048C4.07215 25.9747 4.30885 26.1886 4.59304 26.3161C4.87724 26.4436 5.19443 26.4781 5.4994 26.4148L8.28023 25.8527C8.63408 25.7796 9.00244 25.8385 9.31582 26.0184C9.62919 26.1982 9.8659 26.4865 9.98128 26.8289L10.8836 29.5358C10.9865 29.842 11.1868 30.106 11.4539 30.2877C11.721 30.4693 12.0402 30.5585 12.3627 30.5416H18.2794C18.5895 30.5424 18.892 30.4458 19.1442 30.2653C19.3963 30.0848 19.5854 29.8296 19.6846 29.5358L20.5869 26.8289C20.7023 26.4865 20.939 26.1982 21.2524 26.0184C21.5657 25.8385 21.9341 25.7796 22.2879 25.8527L25.0688 26.4148C25.3737 26.4781 25.6909 26.4436 25.9751 26.3161C26.2593 26.1886 26.496 25.9747 26.6515 25.7048L29.6098 20.5869C29.7669 20.3166 29.8343 20.0036 29.8024 19.6927C29.7705 19.3818 29.641 19.0889 29.4323 18.8562L27.4354 16.7262ZM25.2315 18.7083L26.4148 20.0396L24.5215 23.3233L22.7761 22.9683C21.7107 22.7505 20.6025 22.9315 19.6618 23.4769C18.7211 24.0222 18.0134 24.894 17.6729 25.9266L17.1109 27.5833H13.3242L12.7917 25.8971C12.4513 24.8644 11.7435 23.9926 10.8028 23.4473C9.8621 22.9019 8.75389 22.721 7.68857 22.9387L5.94315 23.2937L4.02023 20.0248L5.20357 18.6935C5.93125 17.8799 6.33355 16.8267 6.33355 15.7352C6.33355 14.6437 5.93125 13.5904 5.20357 12.7769L4.02023 11.4456L5.91357 8.19144L7.65898 8.54644C8.72431 8.7642 9.83251 8.58324 10.7732 8.0379C11.7139 7.49255 12.4217 6.6208 12.7621 5.5881L13.3242 3.91664H17.1109L17.6729 5.60289C18.0134 6.63559 18.7211 7.50735 19.6618 8.05269C20.6025 8.59803 21.7107 8.77899 22.7761 8.56123L24.5215 8.20623L26.4148 11.49L25.2315 12.8212C24.512 13.6329 24.1147 14.6801 24.1147 15.7648C24.1147 16.8495 24.512 17.8966 25.2315 18.7083ZM15.2175 9.83331C14.0473 9.83331 12.9034 10.1803 11.9304 10.8304C10.9574 11.4806 10.1991 12.4046 9.75124 13.4858C9.30342 14.5669 9.18625 15.7565 9.41455 16.9043C9.64284 18.052 10.2063 19.1062 11.0338 19.9337C11.8613 20.7612 12.9155 21.3247 14.0632 21.553C15.211 21.7813 16.4006 21.6641 17.4817 21.2163C18.5629 20.7684 19.4869 20.0101 20.1371 19.0371C20.7872 18.0641 21.1342 16.9202 21.1342 15.75C21.1342 14.1808 20.5108 12.6759 19.4012 11.5663C18.2916 10.4567 16.7867 9.83331 15.2175 9.83331ZM15.2175 18.7083C14.6324 18.7083 14.0605 18.5348 13.574 18.2097C13.0875 17.8847 12.7083 17.4226 12.4844 16.8821C12.2605 16.3415 12.2019 15.7467 12.316 15.1728C12.4302 14.599 12.7119 14.0719 13.1257 13.6581C13.5394 13.2444 14.0665 12.9626 14.6404 12.8485C15.2142 12.7343 15.8091 12.7929 16.3496 13.0168C16.8902 13.2407 17.3522 13.6199 17.6773 14.1064C18.0024 14.5929 18.1759 15.1649 18.1759 15.75C18.1759 16.5346 17.8642 17.287 17.3094 17.8418C16.7546 18.3966 16.0021 18.7083 15.2175 18.7083Z" stroke="#2E1619" stroke-width="2.95833" mask="url(#path-1-inside-1_825_14448)"/>
</svg>
