<svg width="41" height="40" viewBox="0 0 41 40" fill="none" xmlns="http://www.w3.org/2000/svg">
<path d="M0 5C0 2.23858 2.23858 0 5 0H36C38.7614 0 41 2.23858 41 5V35C41 37.7614 38.7614 40 36 40H5C2.23858 40 0 37.7614 0 35V5Z" fill="white" fill-opacity="0.5"/>
<path d="M14.1694 21.6267C14.7593 18.2684 18.5233 13.4118 20.3315 11.4033C22.3705 13.2897 23.7941 16.105 24.251 17.2768L20.4958 19.3462L20.451 24.4844L24.6305 27.3238C23.8438 28.2512 21.71 30.1012 19.4678 30.0816C16.6652 30.0571 13.4321 25.8246 14.1694 21.6267Z" fill="white"/>
<path d="M24.9438 18.2172L21.4241 20.0551L21.3915 23.7919L24.8765 25.9245L28.1605 24.3182L27.9616 20.3457L24.9438 18.2172Z" fill="white"/>
<path d="M24.9908 18.1531L25.1858 17.862L25.0187 17.7501L24.8379 17.8379L24.9908 18.1531ZM28.1954 20.2989L28.5458 20.302L28.5474 20.113L28.3904 20.0078L28.1954 20.2989ZM21.3357 19.9272L21.1828 19.612L20.9873 19.7069L20.9854 19.9241L21.3357 19.9272ZM28.1597 24.3931L28.3256 24.7016L28.5082 24.6034L28.51 24.3962L28.1597 24.3931ZM24.8017 26.1993L24.6099 26.4925L24.7842 26.6065L24.9676 26.5078L24.8017 26.1993ZM21.301 23.9097L20.9506 23.9066L20.949 24.0981L21.1092 24.2029L21.301 23.9097ZM14.1563 23.1337L13.806 23.1306L14.1563 23.1337ZM20.3629 11.0532L20.6247 10.8204L20.3666 10.5302L20.1044 10.8168L20.3629 11.0532ZM20.1978 29.9691L20.2035 30.3194L20.1978 29.9691ZM24.6317 27.1861L24.8851 27.428L25.1804 27.1187L24.8191 26.8901L24.6317 27.1861ZM20.3528 24.4779L20.0026 24.4664L19.996 24.6667L20.1654 24.7739L20.3528 24.4779ZM20.5253 19.2452L20.35 18.9419L20.1816 19.0393L20.1752 19.2337L20.5253 19.2452ZM24.2107 17.1154L24.386 17.4188L24.6672 17.2563L24.5265 16.9636L24.2107 17.1154ZM16.5429 24.7141C16.5279 24.5211 16.3594 24.3769 16.1665 24.3918C15.9736 24.4068 15.8293 24.5753 15.8443 24.7682L16.5429 24.7141ZM19.7875 28.7791C19.981 28.7808 20.1392 28.6253 20.1409 28.4319C20.1426 28.2384 19.9871 28.0802 19.7936 28.0785L19.7875 28.7791ZM24.7959 18.4442L28.0005 20.59L28.3904 20.0078L25.1858 17.862L24.7959 18.4442ZM28.0506 19.9799L24.695 21.5037L24.9847 22.1417L28.3403 20.6179L28.0506 19.9799ZM25.0066 21.5146L21.5024 19.619L21.169 20.2353L24.6732 22.1309L25.0066 21.5146ZM21.4887 20.2424L25.1438 18.4683L24.8379 17.8379L21.1828 19.612L21.4887 20.2424ZM27.8451 20.2959L27.8094 24.39L28.51 24.3962L28.5458 20.302L27.8451 20.2959ZM27.9937 24.0845L24.6357 25.8907L24.9676 26.5078L28.3256 24.7016L27.9937 24.0845ZM25.152 26.2023L25.1902 21.8258L24.4895 21.8197L24.4513 26.1962L25.152 26.2023ZM24.9934 25.9061L21.4927 23.6165L21.1092 24.2029L24.6099 26.4925L24.9934 25.9061ZM21.6513 23.9127L21.6861 19.9302L20.9854 19.9241L20.9506 23.9066L21.6513 23.9127ZM14.5067 23.1367C14.5249 21.0397 15.6096 18.5517 16.9377 16.3232C18.2588 14.1064 19.7861 12.2027 20.6214 11.2897L20.1044 10.8168C19.2403 11.7612 17.6836 13.7029 16.3358 15.9645C14.9949 18.2145 13.826 20.838 13.806 23.1306L14.5067 23.1367ZM20.1922 29.6188C18.198 29.651 16.7843 28.7717 15.8611 27.5214C14.9289 26.2589 14.4938 24.6103 14.5067 23.1367L13.806 23.1306C13.792 24.7302 14.2607 26.5335 15.2974 27.9376C16.3431 29.3537 17.9635 30.3556 20.2035 30.3194L20.1922 29.6188ZM24.6317 27.1861C24.3783 26.9442 24.3783 26.9442 24.3784 26.9441C24.3783 26.9441 24.3784 26.9441 24.3783 26.9441C24.3783 26.9442 24.3783 26.9442 24.3781 26.9444C24.3779 26.9446 24.3776 26.945 24.377 26.9455C24.376 26.9466 24.3743 26.9483 24.372 26.9507C24.3674 26.9555 24.3604 26.9627 24.3511 26.9723C24.3323 26.9915 24.3042 27.0201 24.2676 27.0567C24.1943 27.1299 24.0871 27.2351 23.9526 27.3618C23.6832 27.6154 23.3064 27.9532 22.8756 28.2909C22.4436 28.6295 21.9643 28.9628 21.4895 29.2116C21.0093 29.4634 20.5638 29.6128 20.1922 29.6188L20.2035 30.3194C20.7345 30.3108 21.2945 30.105 21.8149 29.8322C22.3407 29.5565 22.857 29.1958 23.3079 28.8424C23.7599 28.488 24.1531 28.1355 24.433 27.8719C24.5731 27.7399 24.6854 27.6298 24.7629 27.5523C24.8017 27.5135 24.8318 27.4829 24.8525 27.4617C24.8628 27.4512 24.8708 27.443 24.8762 27.4373C24.879 27.4344 24.8811 27.4322 24.8826 27.4307C24.8833 27.4299 24.8839 27.4293 24.8843 27.4288C24.8846 27.4286 24.8847 27.4284 24.8849 27.4283C24.8849 27.4282 24.885 27.4282 24.885 27.4281C24.8851 27.4281 24.8851 27.428 24.6317 27.1861ZM20.1654 24.7739L24.4444 27.4821L24.8191 26.8901L20.5401 24.1819L20.1654 24.7739ZM20.1752 19.2337L20.0026 24.4664L20.7029 24.4894L20.8755 19.2568L20.1752 19.2337ZM24.0354 16.8121L20.35 18.9419L20.7006 19.5486L24.386 17.4188L24.0354 16.8121ZM20.1011 11.2861C20.9858 12.2808 22.6329 14.6425 23.895 17.2672L24.5265 16.9636C23.2402 14.2885 21.5585 11.8705 20.6247 10.8204L20.1011 11.2861ZM15.8443 24.7682C15.8954 25.4279 16.1481 26.4097 16.7499 27.2394C17.3619 28.0829 18.3359 28.7665 19.7875 28.7791L19.7936 28.0785C18.5946 28.068 17.8174 27.5175 17.3171 26.8279C16.8068 26.1244 16.5863 25.274 16.5429 24.7141L15.8443 24.7682Z" fill="white" fill-opacity="0.5"/>
</svg>
