<svg width="41" height="40" viewBox="0 0 41 40" fill="none" xmlns="http://www.w3.org/2000/svg">
<path d="M0 5C0 2.23858 2.23858 0 5 0H36C38.7614 0 41 2.23858 41 5V35C41 37.7614 38.7614 40 36 40H5C2.23858 40 0 37.7614 0 35V5Z" fill="#FF2D2D" fill-opacity="0.6"/>
<path d="M20.8199 13.58L19.9999 14.402L19.1759 13.578C18.3249 12.7259 17.2124 12.1843 16.0168 12.04C14.8212 11.8957 13.6118 12.1571 12.5825 12.7823C11.5532 13.4074 10.7637 14.3601 10.3406 15.4876C9.9174 16.6151 9.88513 17.852 10.2489 19H11.8539C11.4748 18.1739 11.398 17.2408 11.637 16.3639C11.8761 15.4869 12.4157 14.7219 13.1616 14.2024C13.9075 13.683 14.8123 13.4422 15.7177 13.5222C16.6231 13.6022 17.4716 13.9979 18.1149 14.64L19.4729 15.997C19.5436 16.0677 19.6277 16.1236 19.7202 16.1614C19.8128 16.1992 19.912 16.2181 20.0119 16.2169C20.1119 16.2158 20.2107 16.1947 20.3024 16.1549C20.3941 16.1151 20.4769 16.0573 20.5459 15.985L21.8799 14.64C22.5237 13.9979 23.3725 13.6022 24.2782 13.5221C25.1839 13.4419 26.089 13.6824 26.8355 14.2016C27.582 14.7208 28.1224 15.4856 28.3625 16.3626C28.6025 17.2396 28.5269 18.1731 28.1489 19H29.7539C30.1148 17.8517 30.0802 16.6156 29.6556 15.4893C29.231 14.363 28.441 13.4116 27.4119 12.7873C26.3828 12.1629 25.1741 11.9017 23.9791 12.0455C22.784 12.1892 21.6717 12.7295 20.8199 13.58ZM19.4699 29.075L12.8939 22.5H14.8569C14.9079 22.5 14.9589 22.497 15.0089 22.493L19.9999 27.484L24.9879 22.499H27.1099L20.5299 29.075C20.3893 29.2155 20.1987 29.2944 19.9999 29.2944C19.8012 29.2944 19.6105 29.2155 19.4699 29.075ZM17.4199 16.415C17.357 16.2894 17.26 16.1839 17.1401 16.1107C17.0202 16.0375 16.8821 15.9995 16.7415 16.0009C16.601 16.0024 16.4638 16.0433 16.3454 16.119C16.227 16.1947 16.1322 16.3021 16.0719 16.429L14.3819 19.999H10.7499C10.551 19.999 10.3602 20.078 10.2196 20.2187C10.0789 20.3593 9.99992 20.5501 9.99992 20.749C9.99992 20.9479 10.0789 21.1387 10.2196 21.2793C10.3602 21.42 10.551 21.499 10.7499 21.499H14.8569C14.999 21.499 15.1381 21.4587 15.2581 21.3828C15.3781 21.3069 15.4741 21.1984 15.5349 21.07L16.7689 18.464L19.3289 23.584C19.3865 23.6995 19.4728 23.7982 19.5797 23.8705C19.6865 23.9429 19.8102 23.9864 19.9388 23.997C20.0674 24.0075 20.1966 23.9847 20.3138 23.9308C20.431 23.8768 20.5323 23.7936 20.6079 23.689L23.3059 19.953L24.4359 21.243C24.5062 21.3236 24.5929 21.3882 24.6901 21.4325C24.7874 21.4768 24.893 21.4998 24.9999 21.5H29.2499C29.4488 21.5 29.6396 21.421 29.7803 21.2803C29.9209 21.1397 29.9999 20.9489 29.9999 20.75C29.9999 20.5511 29.9209 20.3603 29.7803 20.2197C29.6396 20.079 29.4488 20 29.2499 20H25.3399L23.8139 18.257C23.7397 18.1722 23.6473 18.1051 23.5436 18.0609C23.4399 18.0167 23.3275 17.9964 23.2149 18.0016C23.1023 18.0068 22.9923 18.0373 22.8931 18.0909C22.7939 18.1445 22.708 18.2197 22.6419 18.311L20.1169 21.807L17.4209 16.415H17.4199Z" fill="white"/>
</svg>
