<svg width="33" height="40" viewBox="0 0 33 40" fill="none" xmlns="http://www.w3.org/2000/svg">
<path d="M32.0207 33.9792C22.5833 41.2457 9.4199 41.1876 0.0470581 33.838L6.91671 30.6177C7.24387 30.464 7.55786 30.2836 7.85553 30.0785C7.94588 30.0163 8.03624 29.9514 8.12235 29.8836C8.87001 29.3116 9.48543 28.5849 9.92659 27.7533C10.2601 27.1143 10.4817 26.4229 10.5816 25.709C10.6506 25.2459 10.6855 24.7783 10.6861 24.31C10.6861 23.5025 10.6424 22.6949 10.6339 21.886C10.6282 21.438 10.6235 20.9905 10.6198 20.5434L10.9021 20.6846L11.6362 21.0643L11.9765 21.1222L15.9125 21.7914L20.3059 22.5396L20.4386 27.0573L20.4824 28.534L20.5035 29.2512V29.2977L22.2118 29.9923L32.0207 33.9792Z" fill="#DE8276"/>
<path d="M20.4753 29.0168C19.99 29.1003 19.4908 29.0229 19.0536 28.7966L10.6296 21.91C10.6197 21.5909 10.6113 21.9255 10.607 21.6064C10.6014 21.1584 10.5967 20.7109 10.5929 20.2639L10.8753 20.405L11.6094 20.7848L11.9496 20.8427L15.8856 21.5119L20.279 22.2601L20.4117 26.7777L20.4555 28.2544L20.4767 28.9716V29.0182L20.4753 29.0168Z" fill="#A76962"/>
<path d="M24.8234 16.7415C24.6039 16.9711 24.3633 17.1795 24.1048 17.3641C22.6365 18.4272 20.677 18.7759 19.0027 19.349C18.2968 19.5904 10.6422 21.766 10.6422 22.2389C10.6422 22.1359 9.89255 21.3919 8.94808 20.4883C5.69053 17.3684 4.60452 12.6079 6.18667 8.38386C7.72691 4.33633 12.637 1.54668 16.7495 0.901508C18.7076 0.595155 21.0314 0.424331 22.8398 1.36315C23.7645 1.84457 24.534 2.54621 25.2398 3.3241C25.4601 3.56974 25.6737 3.82057 25.8808 4.07657C25.9697 4.18386 26.0573 4.29115 26.1434 4.39986C29.358 8.43751 28.2187 13.174 24.8234 16.7415Z" fill="url(#paint0_linear_3_10351)"/>
<path d="M24.8236 16.7415C24.6041 16.9711 24.3636 17.1795 24.1051 17.3641C24.0448 17.2591 23.9906 17.1506 23.9427 17.0394C23.57 16.1923 23.378 15.2733 23.2368 14.357C23.017 13.0236 22.8666 11.6797 22.7865 10.3307C22.658 8.16503 21.7333 7.09068 23.5728 5.40221C24.2348 4.79551 25.0232 4.34324 25.8811 4.07797C25.97 4.18527 26.0575 4.29256 26.1436 4.40127C29.3582 8.4375 28.2189 13.174 24.8236 16.7415Z" fill="url(#paint1_linear_3_10351)"/>
<ellipse cx="9.23041" cy="16.5933" rx="2.4" ry="2.4" fill="#E18477"/>
<ellipse cx="9.99294" cy="16.5933" rx="2.1487" ry="2.14871" fill="#A76962"/>
<path d="M10.1723 14.3175C10.2895 15.8507 10.2853 17.7227 10.3262 18.2704C10.4326 19.6436 10.538 21.0163 10.6424 22.3886L20.0222 27.8676C21.3684 28.3708 22.8766 27.7689 23.5064 26.477C24.8561 23.7128 27.0217 19.3476 26.7366 17.7241C26.313 15.3241 25.1836 14.477 25.1836 14.477L25.6537 11.662C26.1295 8.80032 25.1483 6.09115 21.8053 5.77774C21.0994 5.7128 20.313 5.84691 19.8937 6.41021C18.7643 7.92927 19.4151 9.79844 17.7196 11.2102C15.6613 12.9086 11.0688 13.6497 9.99303 12.2789C9.99303 12.2789 10.0919 13.2488 10.1723 14.3175Z" fill="#DE8276"/>
<path d="M17.2114 20.3062C17.8897 21.0637 18.8196 21.5497 19.8288 21.6742" stroke="#00214E" stroke-width="0.884354"/>
<path d="M20.5456 13.6413C20.5343 13.6907 22.4318 18.742 22.4318 18.742L19.899 18.8648" stroke="#00214E" stroke-width="0.884354"/>
<path d="M14.5489 12.6615C15.8558 12.3912 17.2001 12.353 18.5202 12.5486" stroke="#00214E" stroke-width="0.884354"/>
<path d="M22.8854 12.6799C23.6922 12.4919 24.5239 12.4342 25.3489 12.509" stroke="#00214E" stroke-width="0.884354"/>
<path d="M32.0207 33.9792C22.5833 41.2457 9.4199 41.1876 0.0470581 33.838L6.91671 30.6178C7.24387 30.464 7.55786 30.2836 7.85553 30.0785C7.94588 30.0163 8.03624 29.9514 8.12235 29.8836C8.87001 29.3116 9.48543 28.5849 9.92659 27.7533C10.2601 27.1143 10.4817 26.4229 10.5816 25.709C10.6814 25.8057 10.786 25.8971 10.8951 25.9829C11.7607 26.623 12.7001 27.1567 13.6932 27.5726C14.1753 27.7737 14.6683 27.9476 15.1699 28.0935C16.681 28.5342 18.2588 28.701 19.8287 28.5862C20.0461 28.5693 20.2649 28.5481 20.4824 28.5326L20.5035 29.2498V29.2963L22.2118 29.9909L32.0207 33.9792Z" fill="#00214E"/>
<path d="M16.473 14.2483C17.3342 14.2483 17.3342 15.5726 16.473 15.5796H16.4335C15.5709 15.5796 15.5709 14.2554 16.4335 14.2483H16.4716H16.473Z" fill="#00214E"/>
<path d="M23.55 14.0521C24.3491 14.0592 24.3491 15.2803 23.55 15.2874H23.5133C22.7142 15.2874 22.7142 14.0592 23.5133 14.0521H23.55Z" fill="#00214E"/>
<defs>
<linearGradient id="paint0_linear_3_10351" x1="5.46103" y1="22.2444" x2="28.0464" y2="22.2444" gradientUnits="userSpaceOnUse">
<stop stop-color="#16243F"/>
<stop offset="1" stop-color="#6878B1"/>
</linearGradient>
<linearGradient id="paint1_linear_3_10351" x1="18.7629" y1="12.8119" x2="28.2326" y2="15.4985" gradientUnits="userSpaceOnUse">
<stop stop-color="#16243F"/>
<stop offset="1" stop-color="#6878B1"/>
</linearGradient>
</defs>
</svg>
