<svg width="70" height="34" viewBox="0 0 70 34" fill="none" xmlns="http://www.w3.org/2000/svg">
<g clip-path="url(#clip0_34_23774)">
<path d="M0 16.9697C0 7.59759 7.59759 0 16.9697 0H53.0303C62.4024 0 70 7.59759 70 16.9697C70 26.3418 62.4024 33.9394 53.0303 33.9394H16.9697C7.59759 33.9394 0 26.3418 0 16.9697Z" fill="white"/>
<circle cx="16.9697" cy="16.9697" r="16.2626" fill="#263238"/>
<g clip-path="url(#clip1_34_23774)">
<path d="M15.202 10.1448C15.2882 10.2496 15.3411 10.3779 15.3537 10.5131C15.3663 10.6483 15.3381 10.7841 15.2727 10.9031C14.7617 11.8413 14.4948 12.8929 14.4967 13.9612C14.4967 17.5151 17.3939 20.3929 20.9646 20.3929C21.4304 20.3929 21.8838 20.3443 22.3195 20.2515C22.4531 20.2225 22.5922 20.2336 22.7195 20.2833C22.8469 20.3329 22.9567 20.419 23.0354 20.5308C23.1185 20.6469 23.1608 20.7873 23.1559 20.93C23.1509 21.0728 23.0989 21.2099 23.008 21.32C22.3148 22.1715 21.4403 22.8576 20.4483 23.3283C19.4562 23.7989 18.3717 24.0422 17.2737 24.0405C13.1992 24.0405 9.89893 20.7579 9.89893 16.7135C9.89893 13.6695 11.7674 11.0587 14.4277 9.95209C14.5602 9.89608 14.7074 9.88459 14.847 9.91933C14.9866 9.95407 15.1111 10.0332 15.202 10.1448ZM14.1926 11.0578C13.1697 11.6065 12.3145 12.4221 11.718 13.4179C11.1215 14.4138 10.8059 15.5526 10.8049 16.7135C10.8049 20.2665 13.703 23.1443 17.2737 23.1443C18.1287 23.1457 18.9756 22.9776 19.7653 22.6496C20.5549 22.3216 21.2717 21.8403 21.8741 21.2334C21.5762 21.2705 21.273 21.2891 20.9646 21.2891C16.8901 21.2891 13.5907 18.0065 13.5907 13.9621C13.5907 12.9306 13.8046 11.9487 14.1926 11.0578Z" fill="white"/>
<path d="M19.4394 12.6814C19.4521 12.6431 19.4765 12.6098 19.5092 12.5862C19.5418 12.5626 19.5811 12.5499 19.6214 12.5499C19.6618 12.5499 19.7011 12.5626 19.7337 12.5862C19.7664 12.6098 19.7908 12.6431 19.8035 12.6814L20.1456 13.7084C20.2985 14.1662 20.6573 14.5251 21.1151 14.678L22.1422 15.02C22.1804 15.0327 22.2137 15.0571 22.2373 15.0898C22.261 15.1225 22.2737 15.1618 22.2737 15.2021C22.2737 15.2424 22.261 15.2817 22.2373 15.3144C22.2137 15.3471 22.1804 15.3715 22.1422 15.3842L21.1151 15.7262C20.8893 15.8014 20.6842 15.9282 20.5159 16.0965C20.3476 16.2648 20.2208 16.47 20.1456 16.6958L19.8035 17.7228C19.7908 17.7611 19.7664 17.7944 19.7337 17.818C19.7011 17.8416 19.6618 17.8543 19.6214 17.8543C19.5811 17.8543 19.5418 17.8416 19.5092 17.818C19.4765 17.7944 19.4521 17.7611 19.4394 17.7228L19.0973 16.6958C19.0221 16.47 18.8953 16.2648 18.727 16.0965C18.5587 15.9282 18.3536 15.8014 18.1278 15.7262L17.1007 15.3842C17.0625 15.3715 17.0292 15.3471 17.0056 15.3144C16.9819 15.2817 16.9692 15.2424 16.9692 15.2021C16.9692 15.1618 16.9819 15.1225 17.0056 15.0898C17.0292 15.0571 17.0625 15.0327 17.1007 15.02L18.1278 14.678C18.3536 14.6028 18.5587 14.476 18.727 14.3077C18.8953 14.1394 19.0221 13.9342 19.0973 13.7084L19.4394 12.6814ZM22.1519 9.98657C22.1606 9.9614 22.177 9.93958 22.1987 9.92413C22.2204 9.90869 22.2463 9.90039 22.273 9.90039C22.2996 9.90039 22.3256 9.90869 22.3473 9.92413C22.369 9.93958 22.3853 9.9614 22.394 9.98657L22.6221 10.6707C22.7237 10.9765 22.9632 11.216 23.269 11.3176L23.9531 11.5457C23.9783 11.5544 24.0001 11.5707 24.0156 11.5924C24.031 11.6141 24.0393 11.6401 24.0393 11.6667C24.0393 11.6934 24.031 11.7194 24.0156 11.7411C24.0001 11.7628 23.9783 11.7791 23.9531 11.7878L23.269 12.0159C23.1183 12.066 22.9814 12.1506 22.8691 12.2629C22.7568 12.3752 22.6722 12.5121 22.6221 12.6628L22.394 13.3469C22.3853 13.3721 22.369 13.3939 22.3473 13.4094C22.3256 13.4248 22.2996 13.4331 22.273 13.4331C22.2463 13.4331 22.2204 13.4248 22.1987 13.4094C22.177 13.3939 22.1606 13.3721 22.1519 13.3469L21.9238 12.6628C21.8737 12.5121 21.7891 12.3752 21.6768 12.2629C21.5645 12.1506 21.4276 12.066 21.2769 12.0159L20.5928 11.7878C20.5676 11.7791 20.5458 11.7628 20.5304 11.7411C20.5149 11.7194 20.5066 11.6934 20.5066 11.6667C20.5066 11.6401 20.5149 11.6141 20.5304 11.5924C20.5458 11.5707 20.5676 11.5544 20.5928 11.5457L21.2769 11.3176C21.5827 11.216 21.8222 10.9765 21.9238 10.6707L22.1519 9.98745V9.98657Z" fill="white"/>
</g>
</g>
<defs>
<clipPath id="clip0_34_23774">
<path d="M0 16.9697C0 7.59759 7.59759 0 16.9697 0H53.0303C62.4024 0 70 7.59759 70 16.9697C70 26.3418 62.4024 33.9394 53.0303 33.9394H16.9697C7.59759 33.9394 0 26.3418 0 16.9697Z" fill="white"/>
</clipPath>
<clipPath id="clip1_34_23774">
<rect width="14.1414" height="14.1414" fill="white" transform="translate(9.89893 9.89893)"/>
</clipPath>
</defs>
</svg>
