<svg width="71" height="34" viewBox="0 0 71 34" fill="none" xmlns="http://www.w3.org/2000/svg">
<g clip-path="url(#clip0_34_23925)">
<path d="M0.274719 16.9697C0.274719 7.59759 7.87231 0 17.2444 0H53.305C62.6771 0 70.2747 7.59759 70.2747 16.9697C70.2747 26.3418 62.6771 33.9394 53.305 33.9394H17.2444C7.87231 33.9394 0.274719 26.3418 0.274719 16.9697Z" fill="white"/>
<circle cx="53.305" cy="16.9697" r="16.2626" fill="#FFEBEB"/>
<g clip-path="url(#clip1_34_23925)">
<path d="M50.0733 14.29C48.8933 15.8067 48.9139 18.501 50.4221 19.8366C52.1344 21.352 54.5443 21.3362 56.0598 19.9423C57.8766 18.2701 57.7721 15.4871 56.1655 13.9109C54.5504 12.3261 51.6641 12.2435 50.0733 14.29Z" fill="#FCC11A"/>
<path d="M51.968 13.7698C51.5013 13.5632 50.9909 14.1259 50.7685 14.5099C50.5461 14.8952 50.3395 15.6499 50.8134 15.8431C51.2874 16.0351 51.6277 15.7094 51.9692 15.1467C52.3082 14.5841 52.5015 14.0068 51.968 13.7698Z" fill="#FEE269"/>
<path d="M53.183 11.6554C53.07 11.8668 53.1076 12.0297 53.3325 12.0832C53.5573 12.1366 54.9561 12.3639 55.074 12.3712C55.2453 12.3821 55.3085 12.2533 55.2878 12.1038C55.266 11.9543 54.9245 9.86042 54.8929 9.66841C54.8613 9.47639 54.6583 9.28438 54.4651 9.5408C54.2719 9.79723 53.2681 11.4962 53.183 11.6554ZM56.8045 13.1089C56.5845 13.1769 56.5906 13.3118 56.7085 13.4832C56.8264 13.6545 57.6382 14.8929 57.7123 14.9792C57.7877 15.0642 57.9153 15.0861 58.0222 14.9573C58.1292 14.8297 59.4635 12.9582 59.5608 12.8415C59.7212 12.6495 59.6252 12.4465 59.3797 12.5097C59.1925 12.5596 56.9431 13.0663 56.8045 13.1089ZM58.4816 16.7097C58.3236 16.6198 58.1182 16.6453 58.0648 16.8483C58.0113 17.0512 57.7767 18.5254 57.7549 18.6542C57.733 18.783 57.8302 18.9106 57.9894 18.879C58.1486 18.8474 60.3531 18.5205 60.5002 18.484C60.7566 18.4196 60.8417 18.1632 60.5755 17.9712C60.4029 17.846 58.6311 16.7948 58.4816 16.7097ZM56.7182 20.2024C56.8884 20.1113 57.0391 20.1806 57.0816 20.3738C57.1241 20.5658 57.5944 22.5321 57.6698 22.8955C57.7075 23.0778 57.4984 23.2273 57.3283 23.1203C57.1569 23.0134 55.3 21.7191 55.1809 21.6134C55.0095 21.4639 55.1286 21.3083 55.2125 21.2293C55.3826 21.0677 56.5578 20.2887 56.7182 20.2024ZM51.5472 21.2816C51.3321 21.2609 51.2689 21.453 51.3017 21.6231C51.3333 21.7944 51.6542 23.9613 51.676 24.1229C51.7076 24.3575 51.9543 24.4547 52.1135 24.2189C52.2727 23.9832 53.3714 22.2259 53.4601 22.0606C53.6205 21.7616 53.5026 21.6972 53.3422 21.6231C53.183 21.549 51.772 21.3035 51.5472 21.2816ZM48.4714 18.7927C48.6208 18.5472 48.8128 18.6116 48.9526 18.8462C49.0474 19.0066 49.8495 20.0858 49.9248 20.2024C50.0002 20.3203 50.0318 20.5439 49.7972 20.5974C49.5602 20.6521 47.6486 21.154 47.3496 21.2075C47.0507 21.2609 46.8793 21.0264 47.0714 20.77C47.1832 20.6193 48.3863 18.9325 48.4714 18.7927ZM48.0654 16.9333C48.3389 17.0549 48.4677 17.0111 48.5248 16.8155C48.6002 16.559 48.8238 15.3839 48.8347 15.1165C48.842 14.9427 48.7703 14.775 48.5029 14.8175C48.2356 14.8601 46.313 15.1286 46.0675 15.2137C45.7819 15.3134 45.8026 15.6269 45.9922 15.7266C46.217 15.8444 47.8722 16.8483 48.0654 16.9333ZM51.388 12.4465C51.5424 12.3238 51.495 12.1476 51.3564 12.0516C51.2179 11.9556 49.5019 10.7148 49.2844 10.5446C49.0924 10.3951 48.8566 10.4486 48.921 10.7901C48.9672 11.0356 49.5141 13.1842 49.5517 13.3325C49.5943 13.5038 49.7231 13.5889 49.8726 13.4819C50.0196 13.3762 51.2276 12.5754 51.388 12.4465Z" fill="#FFA722"/>
</g>
</g>
<path d="M17.2444 0.843373H53.305V-0.843373H17.2444V0.843373ZM53.305 33.096H17.2444V34.7828H53.305V33.096ZM17.2444 33.096C8.33809 33.096 1.11809 25.876 1.11809 16.9697H-0.568654C-0.568654 26.8076 7.40653 34.7828 17.2444 34.7828V33.096ZM69.4313 16.9697C69.4313 25.876 62.2113 33.096 53.305 33.096V34.7828C63.1429 34.7828 71.1181 26.8076 71.1181 16.9697H69.4313ZM53.305 0.843373C62.2113 0.843373 69.4313 8.06337 69.4313 16.9697H71.1181C71.1181 7.13181 63.1429 -0.843373 53.305 -0.843373V0.843373ZM17.2444 -0.843373C7.40653 -0.843373 -0.568654 7.13181 -0.568654 16.9697H1.11809C1.11809 8.06337 8.33809 0.843373 17.2444 0.843373V-0.843373Z" fill="#FDDAD6"/>
<defs>
<clipPath id="clip0_34_23925">
<path d="M0.274719 16.9697C0.274719 7.59759 7.87231 0 17.2444 0H53.305C62.6771 0 70.2747 7.59759 70.2747 16.9697C70.2747 26.3418 62.6771 33.9394 53.305 33.9394H17.2444C7.87231 33.9394 0.274719 26.3418 0.274719 16.9697Z" fill="white"/>
</clipPath>
<clipPath id="clip1_34_23925">
<rect width="15.5556" height="15.5556" fill="white" transform="translate(45.527 9.19202)"/>
</clipPath>
</defs>
</svg>
