<svg width="230" height="231" viewBox="0 0 230 231" fill="none" xmlns="http://www.w3.org/2000/svg">
<path d="M206.917 42.0012H136.574V131.867H206.917V42.0012Z" fill="white"/>
<path d="M206.917 74.5646H136.574V75.6548H206.917V74.5646Z" fill="#FFC7BD"/>
<path d="M206.917 102.671H136.574V103.761H206.917V102.671Z" fill="#FFC7BD"/>
<path d="M206.917 130.777H136.574V131.867H206.917V130.777Z" fill="#FFC7BD"/>
<path d="M172.555 42.0012H170.936V130.777H172.555V42.0012Z" fill="#FCF4F3"/>
<path d="M174.119 102.666H182.455V88.7924H174.119V102.666Z" fill="#FCF4F3"/>
<path d="M172.978 88.7924H183.6V86.4326H172.978V88.7924Z" fill="#FFEBEB"/>
<path d="M175.191 100.407H181.387V91.8514H175.191V100.407Z" fill="#FFC7BD"/>
<path d="M185.353 102.666H193.688V88.7924H185.353V102.666Z" fill="#FCF4F3"/>
<path d="M184.212 88.7924H194.833V86.4326H184.212V88.7924Z" fill="#FFEBEB"/>
<path d="M186.424 100.407H192.62V91.8514H186.424V100.407Z" fill="#FFC7BD"/>
<path d="M196.586 102.666H204.921V88.7924H196.586V102.666Z" fill="#FCF4F3"/>
<path d="M195.445 88.7924H206.066V86.4326H195.445V88.7924Z" fill="#FFEBEB"/>
<path d="M197.658 100.407H203.854V91.8514H197.658V100.407Z" fill="#FFC7BD"/>
<path d="M149.072 130.777H138.032V118.237C138.032 117.589 138.29 116.968 138.748 116.51C139.206 116.052 139.827 115.794 140.475 115.794H146.639C147.287 115.794 147.908 116.052 148.366 116.51C148.824 116.968 149.082 117.589 149.082 118.237V130.777H149.072Z" fill="#FCF4F3"/>
<path d="M140.346 115.84H146.749V114.313H140.346V115.84Z" fill="#FCF4F3"/>
<path d="M138.718 114.313H148.382V112.68H138.718V114.313Z" fill="#FFEBEB"/>
<path d="M139.794 127.511H149.072V119.424H139.794V127.511Z" fill="#FFC7BD"/>
<path d="M161.423 130.777H150.383V118.237C150.383 117.589 150.641 116.968 151.099 116.51C151.557 116.052 152.178 115.794 152.826 115.794H158.99C159.638 115.794 160.259 116.052 160.717 116.51C161.175 116.968 161.432 117.589 161.432 118.237V130.777H161.423Z" fill="#FCF4F3"/>
<path d="M152.702 115.84H159.105V114.313H152.702V115.84Z" fill="#FCF4F3"/>
<path d="M151.069 114.313H160.733V112.68H151.069V114.313Z" fill="#FFEBEB"/>
<path d="M152.145 127.511H161.423V119.424H152.145V127.511Z" fill="#FFC7BD"/>
<path d="M173.641 74.6842H187.487V56.7764H173.641V74.6842Z" fill="#FCF4F3"/>
<path d="M173.641 56.7764H187.487L184.828 53.124H176.295L173.641 56.7764Z" fill="#FCF4F3"/>
<path d="M174.717 53.1194H186.41V49.5682H174.717V53.1194Z" fill="#FFC7BD"/>
<path d="M175.614 68.81H187.482V60.76H175.614V68.81Z" fill="#FFEBEB"/>
<path d="M188.522 74.6842H202.368V56.7764H188.522V74.6842Z" fill="#FCF4F3"/>
<path d="M188.522 56.7764H202.368L199.709 53.124H191.181L188.522 56.7764Z" fill="#FCF4F3"/>
<path d="M189.598 53.1194H201.292V49.5682H189.598V53.1194Z" fill="#FFC7BD"/>
<path d="M190.5 68.81H202.368V60.76H190.5V68.81Z" fill="#FFEBEB"/>
<path d="M166.115 74.56H141.303C140.617 74.56 139.96 74.2876 139.475 73.8028C138.99 73.318 138.718 72.6604 138.718 71.9748C138.718 71.2892 138.99 70.6316 139.475 70.1468C139.96 69.662 140.617 69.3896 141.303 69.3896H166.115C166.8 69.3908 167.457 69.6637 167.94 70.1484C168.424 70.6331 168.696 71.29 168.696 71.9748C168.696 72.6596 168.424 73.3165 167.94 73.8012C167.457 74.2859 166.8 74.5588 166.115 74.56Z" fill="#FFEBEB"/>
<path d="M166.115 69.04H141.303C140.618 69.04 139.961 68.7683 139.477 68.2844C138.992 67.8006 138.719 67.1442 138.718 66.4594C138.718 65.7738 138.99 65.1162 139.475 64.6314C139.96 64.1466 140.617 63.8742 141.303 63.8742H166.115C166.8 63.8754 167.457 64.1483 167.94 64.633C168.424 65.1177 168.696 65.7746 168.696 66.4594C168.696 67.1438 168.424 67.8002 167.94 68.2842C167.456 68.7681 166.8 69.04 166.115 69.04Z" fill="#FFEBEB"/>
<path d="M165.683 63.5568H141.731C141.243 63.5568 140.775 63.3629 140.43 63.0178C140.084 62.6728 139.891 62.2048 139.891 61.7168C139.891 61.2288 140.084 60.7608 140.43 60.4157C140.775 60.0706 141.243 59.8768 141.731 59.8768H165.683C166.171 59.8768 166.639 60.0706 166.984 60.4157C167.329 60.7608 167.523 61.2288 167.523 61.7168C167.523 62.2048 167.329 62.6728 166.984 63.0178C166.639 63.3629 166.171 63.5568 165.683 63.5568Z" fill="#FCF4F3"/>
<path d="M165.683 59.518H141.731C141.243 59.518 140.775 59.3242 140.43 58.9791C140.084 58.634 139.891 58.166 139.891 57.678C139.891 57.19 140.084 56.722 140.43 56.3769C140.775 56.0319 141.243 55.838 141.731 55.838H165.683C166.171 55.838 166.639 56.0319 166.984 56.3769C167.329 56.722 167.523 57.19 167.523 57.678C167.523 58.166 167.329 58.634 166.984 58.9791C166.639 59.3242 166.171 59.518 165.683 59.518Z" fill="#FCF4F3"/>
<path d="M206.917 151.739L171.801 151.868L136.574 151.941H136.372V151.739L136.344 136.223V135.993H136.574L171.746 136.057L206.917 136.145H207V136.223L206.917 151.739ZM206.917 151.739L206.839 136.223L206.917 136.306L171.746 136.393L136.574 136.453L136.804 136.223L136.776 151.739L136.574 151.541L171.695 151.615L206.917 151.739Z" fill="#FFC7BD"/>
<path d="M178.36 142.792H165.131V145.009H178.36V142.792Z" fill="#FFC7BD"/>
<path d="M206.917 170.93L171.801 171.059L136.574 171.132H136.372V170.93L136.344 155.414V155.184H136.574L171.746 155.249L206.917 155.336H207V155.414L206.917 170.93ZM206.917 170.93L206.839 155.414L206.917 155.497L171.746 155.584L136.574 155.644L136.804 155.414L136.776 170.93L136.574 170.732L171.695 170.806L206.917 170.93Z" fill="#FFC7BD"/>
<path d="M178.36 161.983H165.131V164.2H178.36V161.983Z" fill="#FFC7BD"/>
<path d="M206.917 190.121L171.801 190.25L136.574 190.324H136.372V190.121L136.344 174.605V174.38H136.574L171.746 174.444L206.917 174.527H207V174.605L206.917 190.121ZM206.917 190.121L206.839 174.605L206.917 174.688L171.746 174.771L136.574 174.84L136.804 174.61L136.776 190.126L136.574 189.928L171.695 190.002L206.917 190.121Z" fill="#FFC7BD"/>
<path d="M178.36 181.174H165.131V183.391H178.36V181.174Z" fill="#FFC7BD"/>
<path d="M65.8261 33.6982H28.1475V79.4038H65.8261V33.6982Z" fill="#FFE8ED"/>
<path d="M61.5205 37.8658H32.4531V75.227H61.5205V37.8658Z" fill="white"/>
<path d="M33.5893 37.8658H32.4531V75.227H33.5893V37.8658Z" fill="#FFEBEB"/>
<path d="M66.9624 33.6982H65.8262V79.4038H66.9624V33.6982Z" fill="#FFEBEB"/>
<path d="M49.0452 43.0178H42.1912V63.4372H49.0452V43.0178Z" fill="#FFEBEB"/>
<path d="M57.7116 67.1586H38.9712V56.6936H57.7116V67.1586ZM39.4312 66.6986H57.2516V57.1536H39.4312V66.6986Z" fill="#FCF4F3"/>
<path d="M114.292 67.2874H76.613V112.993H114.292V67.2874Z" fill="#FCF4F3"/>
<path d="M109.986 71.4596H80.9187V108.821H109.986V71.4596Z" fill="white"/>
<path d="M82.0549 71.4596H80.9187V108.821H82.0549V71.4596Z" fill="#FFEBEB"/>
<path d="M115.433 67.2874H114.296V112.993H115.433V67.2874Z" fill="#FFEBEB"/>
<path d="M98.5136 81.115H92.6394V95.9638H98.5136V81.115Z" fill="#FCF4F3"/>
<path d="M104.926 100.605H88.688V89.9102H104.926V100.605ZM89.148 100.145H104.466V90.3702H89.148V100.145Z" fill="#FFEBEB"/>
<path d="M115 204.804C155.844 204.804 188.954 202.644 188.954 199.979C188.954 197.314 155.844 195.154 115 195.154C74.1563 195.154 41.0459 197.314 41.0459 199.979C41.0459 202.644 74.1563 204.804 115 204.804Z" fill="#FAF0EF" fill-opacity="0.2"/>
<path d="M198.472 162.944C198.472 162.944 206.324 161.164 210.629 157.199C214.935 153.234 217.336 146.127 217.336 146.127C214.352 146.694 211.409 147.463 208.527 148.427C207.451 149.538 206.552 150.809 205.864 152.194C205.796 151.299 205.796 150.399 205.864 149.503C204.857 149.936 203.916 150.508 203.067 151.201C199.479 154.338 198.472 162.944 198.472 162.944Z" fill="#FF7C65"/>
<path d="M212.433 149.581C213.505 148.841 214.595 148.128 215.653 147.378C215.663 147.368 215.67 147.354 215.672 147.339C215.673 147.324 215.67 147.309 215.662 147.297C215.654 147.284 215.641 147.275 215.627 147.271C215.613 147.266 215.598 147.267 215.584 147.272C213.564 148.482 211.568 149.775 209.636 151.127C208.964 151.602 208.302 152.09 207.649 152.59L207.787 152.36C208.021 151.964 208.247 151.578 208.518 151.191C209.011 150.403 209.569 149.659 210.188 148.965C210.211 148.937 210.188 148.901 210.147 148.928C209.539 149.632 208.928 150.331 208.366 151.076C208.103 151.435 207.854 151.803 207.621 152.18C207.502 152.374 207.382 152.571 207.267 152.774L207.152 152.976C206.135 153.772 205.146 154.605 204.203 155.483C203.621 156.026 203.058 156.587 202.515 157.167C202.819 156.219 203.086 155.258 203.435 154.319C203.435 154.287 203.398 154.273 203.385 154.319C203.044 155.299 202.667 156.284 202.405 157.296C201.802 157.944 201.227 158.616 200.684 159.32L200.712 159.191C200.804 158.818 200.896 158.45 200.993 158.082C201.186 157.374 201.393 156.665 201.632 155.971C202.084 154.524 202.8 153.174 203.743 151.987C203.766 151.96 203.743 151.923 203.707 151.95C202.235 153.784 201.205 155.933 200.698 158.229C200.615 158.565 200.533 158.901 200.459 159.237C200.418 159.416 200.372 159.596 200.339 159.78C200.105 160.102 199.879 160.424 199.645 160.755C198.307 162.802 197.194 164.987 196.324 167.273C195.343 169.841 194.503 172.461 193.807 175.121C193.807 175.171 193.872 175.19 193.886 175.121C195.422 170.521 196.991 165.865 199.622 161.758C200.178 160.888 200.776 160.056 201.416 159.246C202.717 159.164 204.001 158.909 205.234 158.487C206.582 158.037 207.868 157.419 209.061 156.647C209.74 156.188 210.394 155.693 211.021 155.166C211.025 155.164 211.028 155.162 211.031 155.159C211.034 155.156 211.037 155.152 211.038 155.148C211.039 155.143 211.039 155.139 211.038 155.135C211.038 155.13 211.036 155.126 211.033 155.123C211.03 155.119 211.027 155.117 211.023 155.115C211.019 155.113 211.015 155.112 211.01 155.112C211.006 155.112 211.002 155.114 210.998 155.116C210.994 155.118 210.991 155.121 210.988 155.124C209.893 156.008 208.683 156.74 207.391 157.3C206.121 157.884 204.792 158.33 203.426 158.63C202.846 158.758 202.262 158.85 201.673 158.929C202.395 158.035 203.163 157.18 203.973 156.366C204.24 156.1 204.512 155.847 204.788 155.594C205.702 154.95 206.673 154.393 207.69 153.928C208.974 153.307 210.243 152.65 211.517 152.001C212.235 151.633 212.948 151.26 213.675 150.906C213.702 150.906 213.675 150.846 213.643 150.86C212.355 151.486 211.044 152.065 209.742 152.663C208.514 153.225 207.272 153.79 206.099 154.453L205.947 154.54C207.014 153.62 208.113 152.732 209.24 151.881C210.303 151.095 211.361 150.322 212.433 149.581Z" fill="#263238"/>
<path d="M211.987 153.629C211.347 153.91 210.699 154.158 210.064 154.453C209.429 154.747 208.799 155.115 208.182 155.479C208.177 155.482 208.173 155.487 208.171 155.493C208.169 155.499 208.17 155.505 208.173 155.511C208.176 155.516 208.181 155.52 208.187 155.522C208.193 155.524 208.2 155.523 208.205 155.52C208.836 155.221 209.466 154.94 210.087 154.628C210.708 154.315 211.352 153.965 212 153.68C212.033 153.68 212.019 153.616 211.987 153.629Z" fill="#263238"/>
<path d="M172.96 123.366C174.413 125.237 175.236 127.521 175.311 129.889C175.311 130.593 175.223 131.577 175.141 132.732C177.1 133.87 178.835 135.358 180.26 137.12C178.693 136.211 176.895 135.78 175.085 135.878C175.124 136.668 175.224 137.454 175.384 138.229C176.527 138.23 177.658 138.453 178.715 138.886C177.683 138.874 176.66 139.077 175.711 139.484C177.091 143.937 181.272 148.51 192.763 150.455C193.982 144.993 193.264 139.277 190.73 134.286C187.285 127.501 172.96 123.366 172.96 123.366Z" fill="#FF7C65"/>
<path d="M196.742 169.504C196.54 167.6 196.291 165.703 195.997 163.814C195.419 160.027 194.652 156.272 193.697 152.562C193.246 150.822 192.692 149.111 192.036 147.438C192.07 147.132 192.085 146.825 192.082 146.518C192.082 146.15 192.082 145.782 192.082 145.414C192.082 144.678 192.041 143.946 191.976 143.21C191.859 141.757 191.624 140.315 191.273 138.9C191.061 138.086 190.813 137.276 190.578 136.467C190.578 136.459 190.575 136.452 190.57 136.447C190.565 136.442 190.558 136.439 190.55 136.439C190.543 136.439 190.536 136.442 190.531 136.447C190.526 136.452 190.523 136.459 190.523 136.467C190.905 137.889 191.184 139.338 191.36 140.8C191.565 142.23 191.694 143.671 191.746 145.115C191.746 145.51 191.769 145.906 191.769 146.302C191.769 146.467 191.769 146.637 191.769 146.808C191.204 145.435 190.558 144.097 189.833 142.801C188.666 140.746 187.351 138.778 185.9 136.913C185.898 136.696 185.865 136.481 185.803 136.274C185.753 136.016 185.693 135.758 185.638 135.505C185.518 134.976 185.389 134.457 185.247 133.937C184.961 132.897 184.584 131.89 184.258 130.864C184.259 130.86 184.26 130.855 184.26 130.851C184.259 130.846 184.258 130.842 184.255 130.838C184.253 130.834 184.25 130.831 184.245 130.829C184.241 130.827 184.237 130.825 184.232 130.825C184.228 130.825 184.223 130.827 184.219 130.829C184.215 130.831 184.212 130.834 184.209 130.838C184.207 130.842 184.205 130.846 184.205 130.851C184.204 130.855 184.205 130.86 184.207 130.864C184.511 131.881 184.713 132.934 184.943 133.974C185.058 134.484 185.173 134.999 185.283 135.51L185.449 136.278C185.449 136.278 185.449 136.32 185.449 136.338C184.986 135.752 184.512 135.174 184.028 134.604C181.833 132.032 179.428 129.659 177.003 127.304C176.709 127.014 176.401 126.729 176.083 126.443C176.056 126.443 176.019 126.443 176.047 126.48C178.347 128.895 180.647 131.338 182.795 133.895C183.31 134.503 183.811 135.114 184.308 135.735C184.046 135.556 183.784 135.386 183.526 135.216C182.855 134.779 182.178 134.351 181.484 133.96C180.789 133.569 180.081 133.187 179.368 132.833C178.655 132.479 177.841 132.17 177.132 131.756C177.1 131.756 177.072 131.793 177.105 131.802C177.836 132.144 178.541 132.538 179.216 132.98C179.915 133.394 180.596 133.813 181.3 134.25C182.004 134.687 182.652 135.101 183.324 135.533C183.885 135.896 184.432 136.297 185.012 136.628C186.343 138.34 187.572 140.13 188.692 141.987C189.388 143.157 190.022 144.362 190.592 145.598L190.182 145.418L189.129 144.958L187.096 144.071C185.808 143.514 184.497 142.999 183.236 142.382C182.523 142.047 181.833 141.664 181.171 141.237C181.143 141.237 181.116 141.265 181.148 141.283C183.503 142.907 186.144 144.043 188.752 145.207L189.883 145.708C190.192 145.842 190.504 145.998 190.803 146.118C191.579 147.844 192.229 149.625 192.749 151.444C193.777 155.102 194.61 158.812 195.247 162.558C195.909 166.312 196.351 170.088 196.696 173.883C196.742 174.343 196.783 174.831 196.839 175.305C196.845 175.34 196.863 175.372 196.891 175.395C196.918 175.418 196.952 175.43 196.988 175.43C197.024 175.43 197.058 175.418 197.086 175.395C197.113 175.372 197.131 175.34 197.138 175.305C197.138 173.345 196.94 171.418 196.742 169.504Z" fill="#263238"/>
<path d="M189.75 137.769C189.538 136.6 189.226 135.469 188.913 134.314C188.913 134.282 188.853 134.314 188.862 134.314C189.152 135.436 189.359 136.582 189.571 137.718C189.782 138.854 189.975 140.046 190.141 141.219H190.173C190.096 140.062 189.955 138.91 189.75 137.769Z" fill="#263238"/>
<path d="M184.796 140.938C183.997 140.411 183.163 139.941 182.298 139.53C181.88 139.314 181.456 139.112 181.033 138.905C180.61 138.698 180.141 138.514 179.704 138.298C179.676 138.298 179.649 138.33 179.681 138.344C180.099 138.555 180.5 138.804 180.909 139.034L182.188 139.733C183.015 140.214 183.865 140.653 184.736 141.048C184.75 141.052 184.765 141.051 184.779 141.046C184.792 141.04 184.803 141.03 184.81 141.017C184.817 141.004 184.819 140.989 184.817 140.975C184.814 140.961 184.807 140.948 184.796 140.938Z" fill="#263238"/>
<path opacity="0.1" d="M198.614 149.342C198.614 149.342 205.878 147.608 209.217 142.732C212.405 138.077 213.431 130.137 213.514 129.443C213.385 130.082 211.885 137.019 206.936 140.248C203.15 142.723 199.488 144.761 198.614 149.342Z" fill="#263238"/>
<path d="M205.321 136.784C204.028 137.973 203.098 139.505 202.639 141.2C202.639 141.2 202.639 141.223 202.662 141.2C203.197 139.547 204.12 138.045 205.353 136.821C205.381 136.803 205.344 136.761 205.321 136.784Z" fill="#263238"/>
<path d="M198.614 149.342C198.614 149.342 205.878 147.608 209.217 142.732C212.405 138.077 213.431 130.137 213.514 129.443C213.516 129.426 213.516 129.409 213.514 129.392C213.514 129.392 210.032 134.346 206.365 135.611C202.699 136.876 197.561 141.26 198.614 149.342Z" fill="#FF7C65"/>
<path d="M212.235 132.124C211.584 133.459 210.833 134.743 209.99 135.965C209.142 137.126 208.135 138.161 207 139.043C206.011 139.825 204.967 140.538 203.969 141.306C203.968 141.294 203.968 141.281 203.969 141.269C204.157 140.989 204.355 140.722 204.562 140.455C204.981 139.926 205.436 139.42 205.892 138.928C206.812 137.948 207.732 136.987 208.527 135.924C208.976 135.338 209.366 134.709 209.691 134.047C209.691 134.015 209.654 134.001 209.641 134.047C208.463 136.504 206.108 138.077 204.429 140.151C204.189 140.446 203.965 140.753 203.757 141.071C203.591 141.302 203.451 141.551 203.339 141.812C202.418 142.549 201.586 143.39 200.859 144.319C200.922 143.842 201.021 143.37 201.154 142.907C201.322 142.26 201.58 141.641 201.922 141.067C201.922 141.039 201.894 141.007 201.876 141.039C201.522 141.617 201.238 142.235 201.029 142.879C200.877 143.389 200.789 143.916 200.767 144.448C200.408 144.936 200.079 145.446 199.783 145.975C199.815 145.819 199.843 145.667 199.875 145.515C200.017 144.793 200.178 144.071 200.367 143.353C200.71 141.898 201.302 140.513 202.115 139.259C202.115 139.231 202.087 139.204 202.069 139.231C201.235 140.467 200.583 141.817 200.132 143.238C199.902 143.951 199.714 144.673 199.553 145.405C199.476 145.763 199.403 146.122 199.332 146.481C199.295 146.67 199.258 146.858 199.226 147.051C198.505 148.634 197.944 150.284 197.552 151.978C196.837 155.008 196.319 158.081 196.002 161.178C195.628 164.399 195.46 167.641 195.5 170.884C195.5 171.293 195.528 171.703 195.551 172.112C195.551 172.218 195.716 172.232 195.721 172.112C195.79 170.498 195.836 168.892 195.928 167.273C196.02 165.654 196.167 164.053 196.337 162.443C196.669 159.287 197.174 156.151 197.851 153.05C198.44 150.391 199.231 147.718 200.657 145.391C201.379 144.233 202.262 143.182 203.279 142.272C204.3 141.352 205.413 140.556 206.499 139.71C207.587 138.885 208.575 137.936 209.443 136.881C210.325 135.706 211.095 134.451 211.743 133.132C211.913 132.801 212.088 132.474 212.263 132.143C212.295 132.124 212.249 132.092 212.235 132.124Z" fill="#263238"/>
<path d="M210.979 133.192C210.503 134.17 209.962 135.115 209.36 136.021C209.36 136.044 209.36 136.062 209.397 136.044C210.019 135.144 210.565 134.195 211.03 133.205C211.048 133.178 210.997 133.159 210.979 133.192Z" fill="#263238"/>
<path d="M171.944 146.127C171.944 146.127 171.829 156.44 178.02 159.435C184.212 162.429 187.505 159.936 191.7 160.934C191.539 160.686 188.545 156.38 183.779 155.198C178.857 153.97 173.42 150.432 171.944 146.127Z" fill="#FF7C65"/>
<path opacity="0.1" d="M171.944 146.127C171.944 146.127 171.829 156.44 178.02 159.435C184.212 162.429 187.505 159.936 191.7 160.934C189.485 159.877 187.115 159.177 184.681 158.86C180.78 158.39 173.324 155.851 171.944 146.127Z" fill="black"/>
<path d="M192.091 161.118C191.358 160.447 190.53 159.886 189.635 159.453C189.506 159.389 189.368 159.338 189.235 159.283L189.028 159.044C188.839 158.85 188.646 158.666 188.444 158.492C188.056 158.157 187.641 157.857 187.202 157.595C186.18 156.997 185.058 156.573 184.014 156.017C184.011 156.014 184.007 156.012 184.003 156.01C183.999 156.009 183.995 156.009 183.991 156.009C183.987 156.01 183.983 156.011 183.979 156.013C183.976 156.016 183.973 156.019 183.971 156.022C183.969 156.026 183.967 156.03 183.967 156.034C183.967 156.038 183.967 156.042 183.969 156.046C183.97 156.05 183.973 156.054 183.976 156.057C183.979 156.059 183.982 156.062 183.986 156.063C184.501 156.33 185.003 156.629 185.509 156.918C186.015 157.208 186.498 157.48 186.972 157.788C187.402 158.064 187.811 158.371 188.195 158.708C188.306 158.8 188.407 158.906 188.513 159.011C187.83 158.78 187.132 158.594 186.424 158.455C185.293 158.225 184.152 158.064 183.025 157.825C182.471 157.7 181.925 157.547 181.387 157.365C180.872 156.951 180.361 156.541 179.874 156.095C179.287 155.556 178.753 154.963 178.278 154.324C178.278 154.296 178.213 154.324 178.236 154.352C178.983 155.365 179.831 156.301 180.766 157.144C180.499 157.043 180.237 156.937 179.975 156.817C177.855 155.866 176.035 154.353 174.713 152.443C174.713 152.41 174.648 152.443 174.667 152.47C175.791 154.11 177.241 155.5 178.926 156.555C179.771 157.082 180.674 157.51 181.617 157.829C182.711 158.169 183.827 158.433 184.957 158.62C186.066 158.799 187.161 159.059 188.232 159.398C189.223 159.73 190.155 160.217 190.992 160.842C192.559 162.069 193.819 163.644 194.672 165.442C195.777 167.827 196.468 170.383 196.714 173C196.714 173.11 196.898 173.11 196.889 173C196.599 168.648 195.44 164.131 192.091 161.118Z" fill="#263238"/>
<path d="M184.92 157.751C184.597 157.268 184.161 156.872 183.65 156.596C183.066 156.291 182.552 155.866 182.142 155.35C182.142 155.322 182.077 155.35 182.096 155.377C182.467 155.851 182.919 156.255 183.43 156.573C183.991 156.87 184.486 157.279 184.883 157.774C184.92 157.82 184.943 157.774 184.92 157.751Z" fill="#263238"/>
<path d="M188.205 168.74L188.485 174.417L189.345 191.768H202.299L203.159 174.417L203.44 168.74H188.205Z" fill="#455A64"/>
<path d="M188.205 168.74L188.485 174.417H203.159L203.44 168.74H188.205Z" fill="#263238"/>
<path d="M187.294 171.79H204.351V166.371H187.294V171.79Z" fill="#455A64"/>
<path d="M19.8628 191.777H81.3924L69.1242 120.417H23.115L19.8628 191.777Z" fill="#FCF4F3"/>
<path d="M19.8628 191.777H25.2586L28.2854 120.417H23.115L19.8628 191.777Z" fill="#FFC7BD"/>
<path d="M62.2747 79.0726C61.0971 79.2382 55.9405 78.6908 52.5503 83.4012C49.3303 87.8632 48.3321 101.341 47.6651 104.285C46.9981 107.229 43.1525 107.703 42.2785 111.121C41.5241 114.06 43.6585 115.118 43.9115 117.266C44.0955 118.932 42.4395 121.448 43.9851 123.904C45.3927 126.135 47.8215 125.634 49.2981 126.324C50.7747 127.014 51.7223 130.409 54.4547 131.301C57.1871 132.193 59.5653 129.686 61.0097 129.686C62.4541 129.686 64.2297 134.102 68.9125 133.67C73.5953 133.238 74.9431 129.236 76.8843 128.435C78.8255 127.635 83.7153 128.937 85.9233 126.489C88.1313 124.042 88.4809 120.785 89.4745 119.589C90.4681 118.393 92.5657 118.559 93.7893 115.781C95.0129 113.002 92.4093 111.273 92.0413 108.881C91.7699 107.211 93.2419 105.661 92.1747 103.121C90.7073 99.6254 86.4201 100.417 84.7457 96.8286C83.4347 94.0134 80.6609 81.7544 73.2089 78.7966C68.0799 76.7496 62.2747 79.0726 62.2747 79.0726Z" fill="#263238"/>
<path d="M47.7985 103.577C47.5204 104.201 47.094 104.747 46.5565 105.168L45.0339 106.507C43.9952 107.326 43.0904 108.303 42.3521 109.4C42.0109 109.925 41.7952 110.521 41.7218 111.143C41.6484 111.764 41.7193 112.394 41.9289 112.984C42.1778 113.573 42.516 114.121 42.9317 114.608C43.4118 115.137 43.8103 115.736 44.1139 116.383C44.2993 117.121 44.2396 117.899 43.9437 118.6C43.7275 119.258 43.4837 119.884 43.3135 120.514C42.9455 121.761 42.8535 123.09 43.4745 124.194C43.7539 124.746 44.2107 125.188 44.7717 125.45C45.3704 125.696 46.0103 125.827 46.6577 125.836C47.3201 125.878 47.9917 125.836 48.6725 125.836C49.3568 125.778 50.0427 125.927 50.6413 126.264C50.0219 126.007 49.3426 125.931 48.6817 126.043C48.0101 126.094 47.3385 126.181 46.6531 126.2C45.9486 126.229 45.2453 126.12 44.5831 125.878C43.8965 125.604 43.3226 125.106 42.9547 124.465C42.1497 123.21 42.2739 121.604 42.6373 120.302C42.8121 119.631 43.0467 118.987 43.2353 118.357C43.4688 117.808 43.522 117.199 43.3871 116.618C42.9731 115.546 41.7495 114.594 41.2757 113.2C41.0317 112.515 40.9566 111.78 41.0567 111.06C41.1568 110.339 41.4292 109.653 41.8507 109.06C42.6737 107.953 43.6693 106.985 44.7993 106.194L46.4277 104.989C46.9825 104.624 47.4504 104.142 47.7985 103.577Z" fill="#263238"/>
<path d="M80.1411 85.6552C81.4475 87.7068 82.2663 90.0068 83.2967 92.178C83.8165 93.2636 84.2949 94.3676 84.8837 95.398C85.1581 95.9043 85.4867 96.3793 85.8635 96.8148C85.9416 96.9174 86.0364 97.0061 86.1441 97.077C86.2431 97.1605 86.353 97.2301 86.4707 97.284C86.7237 97.4174 86.9951 97.5324 87.2665 97.6474C88.4022 98.0919 89.5139 98.5955 90.5969 99.1562C91.7407 99.7358 92.6774 100.655 93.2787 101.787C93.5685 102.372 93.7031 103.022 93.6697 103.673C93.6101 104.303 93.4289 104.916 93.1361 105.477C92.5841 106.558 92.0643 107.639 92.0413 108.871C91.8803 107.648 92.3587 106.433 92.7911 105.329C93.0255 104.801 93.1582 104.233 93.1821 103.655C93.1765 103.095 93.0276 102.545 92.7497 102.059C92.1581 101.068 91.2922 100.269 90.2565 99.7588C89.1835 99.2308 88.0842 98.7579 86.9629 98.342C86.6823 98.2178 86.4017 98.089 86.1211 97.9418C85.8156 97.7803 85.5438 97.5617 85.3207 97.2978C84.9135 96.8125 84.5617 96.2833 84.2719 95.72C83.6968 94.6443 83.1898 93.5335 82.7539 92.3942L81.4705 88.9994C81.095 87.859 80.6511 86.7422 80.1411 85.6552Z" fill="#263238"/>
<path d="M90.62 118.752C90.1094 119.451 90.0496 120.353 89.8656 121.186C89.6816 122.018 89.516 122.883 89.2998 123.729C89.0923 124.592 88.7963 125.43 88.4166 126.232C88.0309 127.076 87.4451 127.813 86.7099 128.38C85.0723 129.447 83.1173 129.341 81.4245 129.052C80.5643 128.9 79.7226 128.702 78.8762 128.592C78.0405 128.401 77.1714 128.414 76.3416 128.628C77.1481 128.264 78.0373 128.121 78.9175 128.214C79.7915 128.274 80.6517 128.403 81.5027 128.481C83.1771 128.642 84.9619 128.651 86.2683 127.764C86.9053 127.276 87.419 126.646 87.768 125.924C88.1523 125.172 88.4754 124.39 88.7339 123.587C89.0145 122.777 89.2491 121.945 89.4975 121.117C89.6355 120.703 89.7736 120.289 89.9299 119.879C90.0538 119.448 90.2922 119.059 90.62 118.752Z" fill="#263238"/>
<path d="M78.2367 131.908C88.1635 136.798 122.521 150.552 132.121 145.096C138.418 141.518 157.881 120.376 157.035 112.045C156.667 108.421 140.245 95.5222 137.949 98.6732C135.654 101.824 120.589 119.373 117.948 120.652C115.308 121.931 83.3657 117.892 73.4619 118.665C56.3913 119.98 72.8915 129.3 78.2367 131.908Z" fill="#D3766A"/>
<path d="M130.516 103.347L151.575 125.956C151.575 125.956 137.448 144.158 127.728 147.833C115.92 152.3 78.8808 135.082 73.14 131.945C63.7514 126.798 60.72 121.466 65.941 119.042C67.9558 118.085 71.2264 117.579 75.8632 117.708C80.707 117.828 110.05 120.371 117.631 119.157C121.9 118.476 130.516 103.347 130.516 103.347Z" fill="#FCF4F3"/>
<path d="M146.427 128.812C143.207 125.565 130.552 111.792 128.027 108.632C127.852 108.416 127.949 108.25 128.16 108.453C138.023 117.956 143.57 125.335 146.56 128.693C146.625 128.762 146.505 128.895 146.427 128.812Z" fill="#263238"/>
<path d="M92.9614 191.768C92.9614 191.768 32.545 191.768 32.292 191.768C32.292 191.768 32.476 190.351 32.8302 188.511C32.8302 188.447 32.8302 188.387 32.867 188.323C32.9038 188.258 32.867 188.3 32.867 188.286C32.9176 188.019 32.9728 187.738 33.028 187.439C33.2304 186.414 33.488 185.218 33.741 183.87C34.7024 179.15 36.11 172.623 37.881 165.511C38.065 164.761 38.2582 164.007 38.4514 163.248C38.847 161.698 39.261 160.125 39.6888 158.542C39.7578 158.298 39.8222 158.055 39.8912 157.811C39.8912 157.737 39.9326 157.664 39.951 157.59C40.02 157.346 40.0844 157.102 40.1534 156.854C43.1112 146.191 46.759 135.321 50.8392 127.943C51.9815 125.795 53.3709 123.788 54.9792 121.963C55.6601 121.217 56.3967 120.523 57.1826 119.888C57.3988 119.718 57.6104 119.553 57.822 119.396C58.0336 119.24 58.282 119.083 58.4798 118.936C59.0668 118.544 59.6818 118.195 60.3198 117.892C60.7781 117.672 61.2497 117.482 61.732 117.322C62.077 117.202 62.422 117.105 62.7624 117.023C65.3541 116.376 68.0921 116.688 70.472 117.901C70.9967 118.173 71.5023 118.481 71.9854 118.821C72.1004 118.904 72.2154 118.987 72.3258 119.074C72.8536 119.473 73.3517 119.91 73.8162 120.381L73.9542 120.528C74.2164 120.827 74.6856 121.411 75.302 122.211C76.1024 123.246 77.142 124.654 78.3426 126.287C78.7658 126.867 79.2013 127.472 79.649 128.104L79.7686 128.274C79.8974 128.449 80.0216 128.628 80.1458 128.808C80.8726 129.834 81.6178 130.915 82.363 132.028C82.9288 132.86 83.4946 133.711 84.0512 134.567C84.8102 135.726 85.5508 136.895 86.2546 138.049C87.8525 140.582 89.2476 143.236 90.4268 145.989C90.6761 146.605 90.8851 147.236 91.0524 147.879C91.0701 147.94 91.0839 148.001 91.0938 148.063C91.0938 148.119 91.1214 148.178 91.1352 148.234C91.3138 149.121 91.4017 150.024 91.3974 150.929C91.3907 152.133 91.2628 153.334 91.0156 154.513L90.9742 154.72C90.4959 156.91 89.7497 159.032 88.7524 161.04C88.7509 161.051 88.7509 161.062 88.7524 161.072L88.5914 161.39C88.4212 161.707 88.32 161.882 88.32 161.882V161.942L88.412 162.563L89.5528 170.383L91.2226 181.883L92.9614 191.768Z" fill="#FF7C65"/>
<path d="M30.2449 191.768C30.4473 190.664 30.6497 189.56 30.8567 188.47C30.8567 188.442 30.8567 188.41 30.8567 188.382V188.304C30.9073 188.033 30.9579 187.761 31.0131 187.49C32.2919 180.93 33.5799 174.642 34.9599 168.883C35.1209 168.179 35.2865 167.48 35.4521 166.795C36.0639 164.26 36.6803 161.84 37.2921 159.559C37.3197 159.467 37.3427 159.375 37.3703 159.283C37.4209 159.094 37.4715 158.906 37.5267 158.722C37.6049 158.427 37.6877 158.137 37.7705 157.852C38.5709 155.042 39.3805 152.466 40.1947 150.175C43.9897 139.517 47.5547 132.368 50.5815 127.58C52.9183 123.9 54.9515 121.6 56.5615 120.169C57.0134 119.759 57.4896 119.376 57.9875 119.024L58.1025 118.945C59.5331 117.961 60.3427 117.855 60.3427 117.855V117.892C60.3427 117.956 60.3427 118.099 60.3427 118.32C60.3427 118.78 63.3741 133.44 63.4155 135.229C63.5075 139.204 66.8655 188.865 66.9069 191.773C66.9069 191.777 30.2449 191.768 30.2449 191.768Z" fill="#FCF4F3"/>
<path d="M93.38 191.768H81.351C81.351 191.736 81.351 191.699 81.351 191.667C80.96 187.66 80.5782 183.69 80.2102 179.794C80.1826 179.546 80.1596 179.302 80.1366 179.054C79.8974 176.551 79.6766 174.076 79.4328 171.652C79.4328 171.565 79.4328 171.477 79.4328 171.39C79.12 168.101 78.8164 164.895 78.5128 161.794C78.5128 161.699 78.5036 161.603 78.4852 161.505C78.1724 158.183 77.8734 154.991 77.5928 151.955C77.5928 151.891 77.5928 151.831 77.5928 151.766V151.601C77.3214 148.712 77.0132 145.957 76.6728 143.358C76.1852 139.517 75.6608 136.021 75.1456 132.952C74.9984 132.069 74.8528 131.223 74.7086 130.413C74.681 130.261 74.6534 130.114 74.6304 129.953C73.646 124.484 72.7904 120.795 72.4822 119.525C72.4316 119.309 72.3948 119.166 72.3764 119.093C72.3755 119.077 72.3755 119.062 72.3764 119.047C72.9368 119.407 73.4393 119.851 73.8668 120.362L74.0048 120.509C74.382 120.919 74.796 121.397 75.2514 121.94C76.1714 123.016 77.1834 124.337 78.2828 125.818C78.8225 126.542 79.373 127.296 79.9342 128.081L80.0814 128.283L80.477 128.845C81.6362 130.487 82.8184 132.235 83.9592 133.992L84.3824 134.659C85.123 135.814 85.836 136.959 86.5076 138.104C88.0516 140.616 89.3899 143.248 90.5096 145.975C90.7501 146.586 90.9484 147.213 91.103 147.852C91.1207 147.912 91.1345 147.974 91.1444 148.036C91.1444 148.137 91.1858 148.234 91.2042 148.33C91.3512 149.18 91.4327 150.04 91.448 150.902C91.4722 152.107 91.3766 153.312 91.1628 154.499C91.1628 154.591 91.1306 154.683 91.1168 154.77C90.6867 156.978 89.8874 159.098 88.7524 161.04C88.7509 161.051 88.7509 161.062 88.7524 161.072L88.5822 161.339V161.39L88.6788 162.001L88.7662 162.563L89.9438 169.992L92.851 188.286L93.38 191.768Z" fill="#FCF4F3"/>
<path d="M93.2006 191.768H92.9614C92.7176 190.429 92.4462 189.1 92.207 187.761C91.8574 185.806 91.5308 183.851 91.2134 181.887C91.1858 181.731 91.1628 181.57 91.1352 181.427C90.5464 177.779 90.0174 174.122 89.4884 170.465L89.2124 168.556C88.9272 166.565 88.619 164.568 88.3614 162.576C88.3338 162.369 88.3062 162.158 88.2832 161.951L88.2004 161.265C88.1728 160.999 89.2676 159.264 89.5804 158.602C90.0127 157.703 90.3666 156.769 90.6384 155.81C90.7442 155.437 90.8408 155.06 90.9144 154.678C90.9277 154.627 90.9385 154.574 90.9466 154.522C91.2573 152.97 91.3255 151.379 91.149 149.807C90.9924 148.488 90.6837 147.191 90.229 145.943C89.309 143.339 87.8554 140.91 86.3972 138.583L85.997 137.948C85.2656 136.784 84.525 135.625 83.789 134.466C83.3014 133.693 82.8184 132.92 82.34 132.138C82.3355 132.13 82.3331 132.12 82.3328 132.11C82.3325 132.101 82.3345 132.091 82.3384 132.082C82.3424 132.073 82.3483 132.066 82.3558 132.059C82.3632 132.053 82.3719 132.049 82.3814 132.046C82.3897 132.039 82.4003 132.035 82.4113 132.035C82.4222 132.035 82.4328 132.039 82.4412 132.046C82.938 132.699 83.4332 133.357 83.927 134.02L84.4514 134.728C85.1076 135.627 85.7624 136.525 86.4156 137.424C86.0798 136.669 85.7486 135.91 85.4358 135.124C85.3438 134.912 85.261 134.696 85.1736 134.48C85.1276 134.369 85.2886 134.273 85.3392 134.388C85.4772 134.673 85.6106 134.963 85.7394 135.252C86.1994 136.241 86.6042 137.244 87.0182 138.247L87.1148 138.385C88.238 139.961 89.2377 141.622 90.1048 143.353C90.5634 144.29 90.9539 145.258 91.2732 146.251C92.1863 148.936 92.4094 151.807 91.9218 154.6C91.8758 154.871 91.816 155.143 91.7516 155.414C91.7536 155.436 91.7536 155.457 91.7516 155.479C91.4789 156.593 91.0808 157.674 90.5648 158.699C90.206 159.412 89.0514 160.957 89.0514 160.999L89.2446 162.098C89.2676 162.227 89.286 162.36 89.309 162.489C89.7 164.789 90.0404 167.13 90.3716 169.453C90.574 170.889 90.7718 172.324 90.9742 173.754C91.5768 178.06 92.1886 182.361 92.69 186.68C92.7498 187.2 92.805 187.72 92.8602 188.24C92.9614 189.445 93.0718 190.609 93.2006 191.768Z" fill="#263238"/>
<path d="M72.4407 119.53C73.8636 121.676 75.308 123.815 76.7739 125.947C78.2551 128.058 79.7041 130.197 81.2083 132.29L81.2405 131.789L77.6203 135.584L77.3213 135.896L77.6387 136.205C79.1613 137.681 80.7161 139.13 82.2617 140.584L82.1329 140.207C81.5717 144.14 80.9691 148.063 80.4677 152.006C79.9663 155.948 79.4419 159.885 79.0049 163.837C79.7547 159.931 80.4401 156.017 81.0933 152.102C81.7465 148.188 82.3629 144.259 82.9839 140.335L83.0207 140.115L82.8551 139.958C81.3233 138.491 79.8007 137.014 78.2551 135.565V136.186L81.8063 132.327L82.0271 132.088L81.8385 131.825C80.3159 129.742 78.7335 127.685 77.1833 125.643C75.6331 123.601 74.0599 121.554 72.4407 119.53Z" fill="#A6A6A6"/>
<path d="M48.8061 129.236C33.7411 150.52 24.2881 182.26 33.5387 188.116C39.6843 191.998 52.4309 156.836 51.9985 157.01C51.0785 157.388 54.4135 145.308 58.5489 130.652C63.1627 114.295 57.4127 117.069 48.8061 129.236Z" fill="#D3766A"/>
<path d="M56.3362 119.75C44.6798 128.84 23.1656 171.321 31.0408 186.552C37.4256 198.898 53.6452 156.863 53.2312 156.366C52.8172 155.87 57.3022 139.705 59.133 133.127C60.9638 126.549 62.56 114.916 56.3362 119.75Z" fill="#FCF4F3"/>
<path d="M56.9111 144.719C56.5201 145.395 56.1337 146.067 55.7703 146.762C55.7059 146.89 55.6461 147.024 55.5817 147.153C55.6645 146.808 55.7427 146.463 55.8255 146.118C56.1575 144.915 56.4262 143.696 56.6305 142.465C56.631 142.453 56.6274 142.442 56.6203 142.433C56.6132 142.423 56.6031 142.417 56.5917 142.414C56.5803 142.411 56.5683 142.413 56.5577 142.418C56.5472 142.423 56.5388 142.432 56.5339 142.442C56.097 143.665 55.7255 144.91 55.4207 146.173C55.0757 147.392 54.7261 148.611 54.4087 149.853C54.0913 151.095 53.7509 152.309 53.4519 153.533C53.1157 154.741 52.8637 155.97 52.6975 157.213C52.6986 157.226 52.704 157.239 52.713 157.25C52.7219 157.26 52.7339 157.267 52.7472 157.27C52.7605 157.273 52.7745 157.272 52.7871 157.267C52.7996 157.261 52.8101 157.252 52.8171 157.24C53.2933 156.032 53.6823 154.792 53.9809 153.528C54.3121 152.305 54.6157 151.072 54.9331 149.848C55.0665 149.338 55.1907 148.818 55.3149 148.303L55.5081 147.939C55.6921 147.608 55.8577 147.263 56.0187 146.923C56.3499 146.21 56.6535 145.492 56.9387 144.765C56.9617 144.719 56.9249 144.701 56.9111 144.719Z" fill="#263238"/>
<path d="M60.4623 119.231C59.6343 121.607 58.7818 123.976 57.9047 126.338C57.0169 128.688 56.1659 131.057 55.2459 133.394L55.1125 132.934L59.1651 135.947L59.5009 136.195L59.2801 136.559C58.2175 138.298 57.1273 140.013 56.0601 141.734L56.0969 141.338C57.4217 145.073 58.7879 148.795 60.0621 152.553C61.3363 156.311 62.6381 160.06 63.8571 163.837C62.3667 160.157 60.9208 156.466 59.5193 152.765C58.0841 149.085 56.7593 145.345 55.3517 141.628L55.2781 141.421L55.3931 141.232C56.4603 139.503 57.5229 137.764 58.6131 136.048L58.7281 136.66L54.7215 133.573L54.4731 133.38L54.5881 133.09C55.5081 130.758 56.5201 128.458 57.4815 126.144C58.4429 123.831 59.4411 121.517 60.4623 119.231Z" fill="#A6A6A6"/>
<path d="M58.2959 123.32C57.9785 118.573 61.8563 116.88 65.4121 116.42C69.6303 115.85 72.4363 116.208 74.4557 120.298C76.5809 124.608 77.6757 129.613 78.5221 134.332C78.6785 135.211 80.0539 134.995 79.9021 134.112C78.9453 128.674 77.5745 118.536 72.1649 115.574C67.1877 112.85 56.3915 115.514 56.9251 123.564C56.9849 124.456 58.3557 124.231 58.3051 123.343L58.2959 123.32Z" fill="#455A64"/>
<path d="M82.8001 136.292C82.9004 136.915 82.8136 137.555 82.5506 138.129C82.2875 138.703 81.8602 139.186 81.3225 139.517C80.7848 139.848 80.161 140.013 79.53 139.989C78.8989 139.966 78.289 139.756 77.7773 139.386C77.2656 139.016 76.8752 138.502 76.6554 137.91C76.4356 137.318 76.3963 136.674 76.5425 136.06C76.6887 135.446 77.0139 134.889 77.4768 134.459C77.9396 134.03 78.5195 133.747 79.1431 133.647C79.9785 133.514 80.8325 133.718 81.518 134.214C82.2035 134.71 82.6645 135.457 82.8001 136.292Z" fill="#263238"/>
<path d="M81.5213 136.494C81.5812 136.87 81.5284 137.255 81.3695 137.601C81.2106 137.946 80.9527 138.237 80.6285 138.436C80.3043 138.635 79.9283 138.734 79.5482 138.719C79.168 138.704 78.8008 138.577 78.4929 138.353C78.1851 138.13 77.9504 137.82 77.8187 137.463C77.6869 137.106 77.664 136.718 77.7528 136.349C77.8416 135.979 78.0382 135.643 78.3176 135.385C78.597 135.127 78.9467 134.958 79.3225 134.898C79.8257 134.819 80.3398 134.942 80.7521 135.241C81.1643 135.541 81.441 135.991 81.5213 136.494Z" fill="#FCF4F3"/>
<path d="M63.0936 138.215C66.585 151.555 66.0376 154.825 64.9336 156.357C64.0962 157.429 63.0226 158.293 61.7964 158.883L61.3962 157.999L61.5986 158.459L61.3962 157.999C62.469 157.478 63.4119 156.724 64.1562 155.791C64.9612 154.683 65.6282 151.679 62.1736 138.463L63.0936 138.215Z" fill="#C7C7C7"/>
<path d="M59.7056 158.858L60.2098 159.772C60.3459 160.019 60.6565 160.109 60.9034 159.973L62.9458 158.847C63.1927 158.711 63.2826 158.4 63.1464 158.153L62.6422 157.239C62.5061 156.992 62.1955 156.902 61.9486 157.038L59.9062 158.164C59.6593 158.3 59.5695 158.611 59.7056 158.858Z" fill="#263238"/>
<path d="M54.3859 138.532C51.7179 148.588 51.0693 154.089 52.3389 155.856C53.0788 156.795 54.0226 157.553 55.0989 158.073L54.6941 158.956C53.4716 158.361 52.4016 157.494 51.5661 156.422C50.0527 154.319 50.6001 149.062 53.4613 138.284L54.3859 138.532Z" fill="#C7C7C7"/>
<path d="M53.3141 158.229L53.8192 157.321C53.885 157.202 53.9951 157.115 54.1253 157.078C54.2555 157.041 54.3952 157.057 54.5136 157.123L56.552 158.256C56.6714 158.322 56.7595 158.433 56.7971 158.565C56.8346 158.696 56.8183 158.837 56.7519 158.956L56.2468 159.865C56.2142 159.924 56.1704 159.975 56.1179 160.017C56.0654 160.059 56.0052 160.09 55.9407 160.108C55.8762 160.126 55.8087 160.132 55.7421 160.124C55.6755 160.117 55.6111 160.096 55.5525 160.063L53.514 158.93C53.4545 158.898 53.4019 158.854 53.3595 158.801C53.3171 158.748 53.2857 158.687 53.2671 158.622C53.2485 158.556 53.243 158.488 53.2511 158.421C53.2592 158.353 53.2806 158.288 53.3141 158.229Z" fill="#263238"/>
<path d="M53.1162 137.865C53.5601 135.64 54.1408 133.445 54.855 131.292C55.2788 130.339 55.9508 129.518 56.8008 128.914C56.994 128.914 56.9158 127.198 56.8008 125.813C56.7134 124.594 56.5892 123.173 56.879 122.782C57.0482 122.6 57.2821 122.491 57.5305 122.479C57.779 122.467 58.0223 122.552 58.2084 122.717C58.5442 123.076 58.558 124.502 58.5994 125.726C58.6408 127.106 58.7328 128.808 58.926 128.803C59.7816 129.361 60.49 130.117 60.9914 131.007C61.9243 133.134 62.6932 135.33 63.2914 137.575C63.5996 139.006 63.1304 139.181 62.721 139.323C62.1414 139.521 61.7734 139.121 61.341 137.539C60.6234 135.032 59.7218 130.809 57.9784 130.818C56.2442 130.988 55.5358 135.459 54.9746 137.948C54.6204 139.507 54.2938 139.659 53.6958 139.521C53.268 139.42 52.8356 139.245 53.1162 137.865Z" fill="#263238"/>
<path d="M94.2632 72.0898L91.3008 140.23L145.687 133.058L148.654 64.9184L94.2632 72.0898Z" fill="#37474F"/>
<path opacity="0.2" d="M100.473 103.816C100.873 110.399 103.233 114.014 103.992 116.121C104.751 118.228 108.132 123.426 108.132 123.693C108.132 123.959 104.949 138.413 104.949 138.413L129.053 135.234C129.053 135.234 128.63 127.626 128.809 126.899C128.988 126.172 134.173 115.633 135.921 111.056C137.669 106.479 140.82 92.385 140.608 87.371C140.396 82.357 135.548 83.2586 134.568 87.1042C133.777 90.1494 130.64 101.079 130.29 100.996C129.941 100.913 132.13 85.3056 131.417 79.6338C130.704 73.962 125.801 75.9952 125.262 80.4434C124.724 84.8916 123.767 99.6438 123.556 99.607C123.344 99.5702 122.456 83.1068 121.601 78.6356C120.745 74.1644 115.239 75.1488 115.05 80.333C114.862 85.5172 116.159 101.07 115.947 100.923C115.736 100.775 113.831 90.4116 112.037 85.0526C110.243 79.6936 104.986 82.5364 105.708 87.9782C106.43 93.42 111.007 109.437 110.768 109.387C110.529 109.336 108.063 104.787 107.046 100.518C106.03 96.249 100.068 97.2288 100.473 103.816Z" fill="white"/>
<path d="M112.994 116.25C113.109 115.394 112.189 115.578 111.656 114.989C111.122 114.401 109.475 112.901 109.425 112.367C109.374 111.834 109.425 111.066 108.712 110.808C108.21 110.619 107.658 111.167 107.29 111.443C106.922 111.719 106.495 112.363 106.637 112.86C106.863 113.632 107.704 113.573 107.778 113.692C107.852 113.812 109.949 116.07 110.165 116.415C110.382 116.76 110.069 118.255 111.062 118.297C111.739 118.32 111.95 118.021 112.318 117.648C112.521 117.474 112.685 117.26 112.801 117.019C112.917 116.779 112.983 116.517 112.994 116.25Z" fill="white"/>
<path d="M116.987 111.286C117.406 110.486 116.527 110.297 116.311 109.502C116.049 108.623 115.216 106.567 115.391 106.019C115.566 105.472 115.851 104.722 115.359 104.179C115 103.798 114.324 104.12 113.901 104.248C113.636 104.331 113.397 104.479 113.207 104.679C113.016 104.88 112.879 105.126 112.81 105.394C112.714 106.245 113.459 106.521 113.482 106.668C113.505 106.815 114.457 109.888 114.512 110.316C114.568 110.744 113.74 112.11 114.581 112.538C115.152 112.832 115.446 112.62 115.902 112.395C116.147 112.291 116.369 112.139 116.555 111.949C116.741 111.759 116.888 111.534 116.987 111.286Z" fill="white"/>
<path d="M121.196 110.403C121.812 109.644 121.003 109.216 120.966 108.287C120.925 107.261 120.612 104.805 120.906 104.253C121.201 103.701 121.697 102.97 121.334 102.261C121.072 101.746 120.317 101.916 119.867 101.944C119.573 101.968 119.292 102.068 119.049 102.235C118.807 102.402 118.613 102.63 118.487 102.896C118.174 103.816 118.85 104.276 118.832 104.46C118.813 104.644 118.997 108.218 118.947 108.697C118.896 109.175 117.723 110.44 118.455 111.125C118.951 111.585 119.296 111.443 119.807 111.323C120.089 111.274 120.358 111.166 120.597 111.008C120.836 110.85 121.04 110.644 121.196 110.403Z" fill="white"/>
<path d="M110.23 96.8608C110.17 97.7072 110.934 97.951 110.957 98.0936C110.957 98.1258 111.026 98.3098 111.118 98.5766L113.45 99.4966C113.109 98.641 112.764 97.7072 112.852 97.3576C112.985 96.8056 113.27 96.0512 112.741 95.5452C112.364 95.1818 111.697 95.5452 111.279 95.6786C111.018 95.7712 110.786 95.9281 110.602 96.1348C110.419 96.3415 110.291 96.5913 110.23 96.8608Z" fill="white"/>
<path d="M112.355 104.189C112.994 104.34 113.247 104.083 113.666 103.775C113.897 103.632 114.097 103.446 114.255 103.225C114.413 103.005 114.525 102.755 114.586 102.491C114.853 101.645 113.942 101.645 113.546 100.946C113.385 100.66 113.118 100.242 112.847 99.8002L110.34 99.3034C110.8 100.118 111.757 101.792 111.863 102.096C111.991 102.491 111.421 103.954 112.355 104.189Z" fill="white"/>
<path d="M121.081 100.467C121.647 99.6714 120.791 99.3172 120.681 98.4064C120.561 97.4036 120.051 95.0162 120.299 94.4458C120.548 93.8754 120.998 93.121 120.575 92.454C120.272 91.971 119.522 92.201 119.066 92.2654C118.775 92.3129 118.501 92.4349 118.27 92.6194C118.04 92.804 117.861 93.0448 117.751 93.3188C117.512 94.2388 118.211 94.662 118.211 94.823C118.211 94.984 118.671 98.503 118.671 98.963C118.671 99.423 117.576 100.78 118.367 101.396C118.91 101.815 119.246 101.636 119.747 101.475C120.026 101.406 120.288 101.281 120.517 101.108C120.747 100.934 120.938 100.717 121.081 100.467Z" fill="white"/>
<path d="M112.176 93.9996C112.608 93.2038 111.752 93.0014 111.532 92.1964C111.283 91.3086 110.612 89.9792 110.759 89.4364C110.906 88.8936 111.246 88.1438 110.759 87.5964C110.405 87.2054 109.724 87.5136 109.305 87.6378C109.039 87.7144 108.797 87.8584 108.603 88.0558C108.409 88.2533 108.269 88.4974 108.197 88.7648C108.086 89.6204 108.822 89.9102 108.841 90.0574C108.859 90.2046 109.655 92.5598 109.701 92.9876C109.747 93.4154 108.9 94.777 109.733 95.2186C110.299 95.5222 110.593 95.3152 111.049 95.099C111.301 95.0017 111.531 94.8541 111.725 94.6651C111.919 94.4761 112.072 94.2496 112.176 93.9996Z" fill="white"/>
<path d="M120.272 90.9268C120.842 90.1356 119.996 89.7676 119.894 88.8568C119.779 87.8494 119.296 85.4574 119.554 84.887C119.812 84.3166 120.262 83.5668 119.848 82.8952C119.545 82.4076 118.795 82.6284 118.34 82.6928C118.048 82.737 117.774 82.8561 117.542 83.0383C117.311 83.2205 117.131 83.4597 117.019 83.7324C116.766 84.6524 117.479 85.0802 117.479 85.2458C117.479 85.4114 117.903 88.9258 117.884 89.4088C117.866 89.8918 116.776 91.2166 117.558 91.8422C118.096 92.27 118.432 92.0906 118.938 91.9342C119.217 91.8669 119.48 91.7428 119.71 91.5694C119.939 91.3961 120.13 91.1773 120.272 90.9268Z" fill="white"/>
<path d="M125.838 111.608C126.587 111.006 125.953 110.362 126.146 109.419C126.357 108.384 126.67 105.835 127.066 105.357C127.461 104.879 128.101 104.276 127.944 103.471C127.829 102.887 127.093 102.859 126.67 102.772C126.391 102.724 126.104 102.754 125.84 102.86C125.577 102.965 125.349 103.142 125.18 103.37C124.674 104.193 125.18 104.869 125.115 105.03C125.051 105.191 124.347 108.844 124.195 109.308C124.044 109.773 122.65 110.744 123.151 111.608C123.496 112.211 123.846 112.147 124.347 112.156C124.621 112.18 124.896 112.143 125.154 112.049C125.411 111.954 125.645 111.804 125.838 111.608Z" fill="white"/>
<path d="M128.23 101.783C128.897 101.079 128.147 100.573 128.193 99.6346C128.243 98.6042 128.151 96.111 128.487 95.582C128.823 95.053 129.37 94.3722 129.08 93.627C128.869 93.0842 128.119 93.167 127.677 93.167C127.388 93.1655 127.104 93.2414 126.854 93.3871C126.604 93.5327 126.397 93.7426 126.256 93.995C125.874 94.869 126.486 95.4302 126.458 95.5958C126.431 95.7614 126.288 99.377 126.196 99.8554C126.104 100.334 124.858 101.488 125.506 102.247C125.966 102.767 126.297 102.643 126.803 102.569C127.083 102.546 127.355 102.464 127.601 102.329C127.847 102.193 128.061 102.007 128.23 101.783Z" fill="white"/>
<path d="M129.081 91.9112C129.729 91.1844 128.952 90.7106 128.961 89.7814C128.961 88.7556 128.851 86.773 129.168 86.2348C129.485 85.6966 130.005 84.9928 129.688 84.266C129.453 83.7416 128.703 83.8704 128.257 83.875C127.97 83.8871 127.691 83.9748 127.449 84.129C127.207 84.2833 127.01 84.4987 126.877 84.7536C126.528 85.6368 127.162 86.1704 127.139 86.3314C127.116 86.4924 127.052 89.6112 126.974 90.085C126.896 90.5588 125.69 91.764 126.376 92.4908C126.836 92.9876 127.185 92.8496 127.691 92.7576C127.969 92.7203 128.236 92.6258 128.475 92.4801C128.714 92.3344 128.92 92.1407 129.081 91.9112Z" fill="white"/>
<path d="M129.642 113.531C130.405 113.191 130.047 112.446 130.438 111.65C130.87 110.771 131.482 108.862 131.933 108.54C132.383 108.218 133.041 107.841 133.115 107.077C133.17 106.521 132.581 106.3 132.259 106.111C132.046 105.993 131.802 105.942 131.559 105.967C131.316 105.992 131.087 106.09 130.902 106.249C130.286 106.857 130.52 107.597 130.442 107.726C130.364 107.855 129.145 110.652 128.897 111.029C128.648 111.406 127.287 111.907 127.471 112.832C127.599 113.462 127.903 113.499 128.303 113.642C128.519 113.733 128.753 113.771 128.986 113.751C129.219 113.732 129.444 113.657 129.642 113.531Z" fill="white"/>
<path d="M133.915 105.191C134.536 104.699 134.016 104.17 134.177 103.393C134.357 102.542 134.522 101.065 134.858 100.674C135.194 100.283 135.714 99.7864 135.59 99.124C135.498 98.641 134.895 98.618 134.545 98.5444C134.316 98.5035 134.079 98.5274 133.862 98.6136C133.645 98.6997 133.456 98.8446 133.317 99.032C132.899 99.7082 133.317 100.265 133.257 100.412C133.198 100.559 132.71 102.928 132.577 103.31C132.443 103.692 131.302 104.488 131.712 105.214C131.988 105.707 132.278 105.674 132.687 105.674C132.915 105.692 133.144 105.657 133.356 105.574C133.569 105.49 133.76 105.359 133.915 105.191Z" fill="white"/>
<path d="M136.036 97.652C136.657 97.1644 136.142 96.6308 136.307 95.8534C136.496 95.0024 136.74 93.3234 137.075 92.9324C137.411 92.5414 137.94 92.0538 137.816 91.3868C137.729 90.9038 137.126 90.8762 136.781 90.798C136.554 90.7519 136.318 90.7706 136.101 90.8519C135.884 90.9333 135.694 91.074 135.553 91.258C135.13 91.9296 135.53 92.4908 135.484 92.638C135.438 92.7852 134.849 95.352 134.711 95.7384C134.573 96.1248 133.428 96.9022 133.832 97.6336C134.108 98.1304 134.398 98.0936 134.808 98.0936C135.032 98.1157 135.259 98.0875 135.472 98.0111C135.684 97.9347 135.877 97.8121 136.036 97.652Z" fill="white"/>
<path d="M107.783 109.847C108.132 109.019 107.244 108.927 106.932 108.163C106.582 107.33 105.828 106.259 105.933 105.707C106.039 105.155 106.288 104.391 105.731 103.922C105.331 103.581 104.678 103.959 104.264 104.129C104.007 104.233 103.781 104.4 103.607 104.615C103.432 104.829 103.315 105.085 103.265 105.357C103.265 106.203 104.029 106.401 104.061 106.539C104.093 106.677 105.073 108.738 105.17 109.152C105.266 109.566 104.558 110.992 105.446 111.319C106.053 111.549 106.329 111.319 106.771 111.047C107.011 110.925 107.224 110.755 107.398 110.549C107.572 110.343 107.702 110.104 107.783 109.847Z" fill="white"/>
<path d="M125.58 119.286C126.845 119.162 128.179 116.176 127.59 114.865C126.836 113.168 122.82 114.769 122.144 116.425C121.624 117.703 122.825 116.885 123.855 117.915C124.619 118.669 124.987 119.35 125.58 119.286Z" fill="white"/>
<path d="M123.234 113.085C122.59 112.018 118.634 112.372 116.794 113.232C115.718 113.734 114.034 115.477 114.034 116.264C114.034 117.05 115.037 118.393 115.874 118.104C117.118 117.743 118.386 117.473 119.669 117.294C121.284 117.156 123.772 113.987 123.234 113.085Z" fill="white"/>
<path d="M137.701 90.3196C137.811 90.2649 137.909 90.1879 137.987 90.0935C138.066 89.9992 138.124 89.8895 138.158 89.7715C138.193 89.6534 138.202 89.5296 138.186 89.4078C138.17 89.286 138.128 89.1688 138.064 89.0638C137.917 88.8338 138.446 87.1732 137.844 87.0444C137.241 86.9156 137.039 88.4244 136.661 88.7832C136.284 89.142 135.81 89.8642 136.372 90.223C136.572 90.337 136.795 90.4048 137.025 90.4215C137.255 90.4382 137.486 90.4034 137.701 90.3196Z" fill="white"/>
<path d="M129.154 83.0608C129.265 82.9787 129.356 82.8735 129.422 82.7524C129.488 82.6314 129.527 82.4974 129.535 82.3599C129.544 82.2224 129.523 82.0847 129.473 81.9562C129.423 81.8278 129.346 81.7118 129.246 81.6164C129.012 81.414 129.186 79.4958 128.45 79.528C127.714 79.5602 127.88 81.2116 127.53 81.713C127.181 82.2144 126.831 83.093 127.576 83.3276C127.844 83.393 128.121 83.403 128.393 83.3571C128.664 83.3113 128.923 83.2104 129.154 83.0608Z" fill="white"/>
<path d="M119.089 81.7636C119.203 81.6839 119.297 81.5795 119.364 81.4583C119.432 81.3371 119.471 81.2022 119.479 81.0637C119.487 80.9253 119.463 80.7868 119.41 80.6586C119.357 80.5305 119.276 80.416 119.172 80.3238C118.938 80.126 119.099 78.2078 118.358 78.2446C117.617 78.2814 117.801 79.9282 117.47 80.4342C117.139 80.9402 116.78 81.8142 117.525 82.0442C117.791 82.1067 118.067 82.1141 118.336 82.0658C118.605 82.0175 118.862 81.9147 119.089 81.7636Z" fill="white"/>
<path d="M109.995 86.9018C110.096 86.8106 110.175 86.6974 110.226 86.5709C110.277 86.4444 110.298 86.3079 110.288 86.1721C110.277 86.0362 110.236 85.9044 110.167 85.7869C110.098 85.6694 110.003 85.5693 109.889 85.4942C109.627 85.3332 109.535 83.4564 108.795 83.5944C108.054 83.7324 108.45 85.301 108.178 85.8392C107.907 86.3774 107.658 87.2836 108.445 87.3894C109.005 87.4346 109.562 87.2597 109.995 86.9018Z" fill="white"/>
<path d="M104.912 103.08C105.011 102.988 105.088 102.875 105.138 102.75C105.188 102.624 105.21 102.489 105.202 102.354C105.194 102.22 105.156 102.088 105.092 101.97C105.028 101.851 104.938 101.748 104.829 101.668C104.567 101.502 104.507 99.6162 103.767 99.745C103.026 99.8738 103.394 101.452 103.114 101.985C102.833 102.519 102.575 103.425 103.357 103.545C103.917 103.601 104.476 103.434 104.912 103.08Z" fill="white"/>
<path d="M115.501 119.589C115.589 119.129 113.836 117.556 113.316 117.667C112.797 117.777 111.711 119.585 111.743 120.233C111.775 120.882 112.939 122.119 113.542 121.747C114.144 121.374 115.34 120.436 115.501 119.589Z" fill="white"/>
<path d="M111.127 137.617L113.257 137.336C113.947 132.989 114.784 128.044 115.184 125.698C115.276 125.165 115.345 124.778 115.386 124.539C115.612 123.219 114.848 122.566 114.167 122.547C113.979 122.535 113.792 122.584 113.634 122.687C113.475 122.79 113.355 122.941 113.289 123.118C112.994 123.918 111.886 131.798 111.127 137.617Z" fill="white"/>
<path d="M115.768 125.62C116.316 126.282 116.854 126.761 116.835 126.949C116.817 127.138 116.61 131.462 116.352 136.927L121.146 136.292C121.445 131.232 121.794 127.17 122.125 126.54C123.045 124.82 126.725 122.175 124.812 120.123C122.898 118.071 120.805 118.642 119.402 118.743C117.999 118.844 117.962 118.591 115.524 121.195C115.166 121.557 114.901 122 114.752 122.487C114.402 123.683 115.092 124.797 115.768 125.62Z" fill="white"/>
<path d="M148.12 89.6158C150.829 92.9784 156.487 96.6124 157.6 99.6208C157.901 100.353 157.957 101.162 157.762 101.928C157.566 102.694 157.129 103.377 156.515 103.876C156.515 103.876 159.974 104.681 160.535 107.579C160.82 109.074 158.695 110.84 158.695 110.84C158.695 110.84 161.455 111.608 161.777 114.217C162.049 116.291 159.873 117.754 159.873 117.754C159.873 117.754 162.173 119.718 161.759 121.922C160.94 126.393 143.442 130.57 139.219 124.769C137.245 122.069 141.574 121.278 141.574 121.278C141.574 121.278 135.074 120.91 134.122 117.322C133.17 113.734 138.855 113.053 138.855 113.053C138.855 113.053 132.558 112.639 131.955 108.825C131.316 104.851 137.121 105.145 137.121 105.145C137.121 105.145 132.599 103.439 132.802 100.407C133.128 95.4072 141.896 99.4874 145.521 97.675L146.128 90.8256L148.12 89.6158Z" fill="#D3766A"/>
<path d="M152.945 94.2894C150.645 90.8808 154.192 85.1538 152.485 81.5796C150.185 76.745 145.622 83.116 146.11 90.821L147.545 96.7412L152.945 94.2894Z" fill="#D3766A"/>
<path d="M159.56 118.035C159.572 118.03 159.585 118.03 159.596 118.034C159.608 118.039 159.617 118.048 159.622 118.06C159.627 118.071 159.627 118.085 159.622 118.096C159.618 118.108 159.608 118.117 159.597 118.122C154.178 120.882 147.37 122.285 141.316 121.342C141.119 121.31 141.082 120.974 141.316 120.965C147.733 120.749 153.414 120.036 159.56 118.035Z" fill="#263238"/>
<path d="M158.783 110.859C158.852 110.859 158.889 110.946 158.82 110.978C153.221 113.812 145.512 115.164 138.662 113.278C138.428 113.214 138.28 112.919 138.556 112.975C143.207 113.876 153.263 112.685 158.783 110.859Z" fill="#263238"/>
<path d="M136.62 104.846C143.258 106.415 149.735 105.697 156.276 104.005C156.363 104.005 156.386 104.106 156.317 104.143C153.341 105.845 149.058 106.489 145.682 106.709C142.553 106.97 139.409 106.407 136.565 105.076C136.464 105.026 136.491 104.814 136.62 104.846Z" fill="#263238"/>
<path d="M62.0171 119.18C62.3713 120.1 65.8489 126.177 70.1959 126.177C72.9559 126.177 72.2659 116.806 72.2659 116.806L72.3119 116.222L72.9421 108.048L62.7807 103.402L61.3271 102.804C61.3271 102.804 61.2995 105.053 61.2949 107.864V108.264C61.2949 108.421 61.2949 108.572 61.2949 108.724C61.2949 109.143 61.2949 109.571 61.2949 109.994C61.2949 110.32 61.2949 110.633 61.2949 110.974C61.2949 111.314 61.2949 111.645 61.3179 111.986C61.4559 115.334 61.8699 118.775 62.0171 119.18Z" fill="#D3766A"/>
<path d="M61.2949 107.85C62.414 109.96 63.9793 111.801 65.8819 113.244C67.7845 114.687 69.9787 115.699 72.3119 116.208L72.9421 108.034L62.7807 103.402L61.3271 102.804C61.3271 102.804 61.2995 105.053 61.2949 107.85Z" fill="#263238"/>
<path d="M82.731 94.1744C85.767 108.237 77.671 111.654 74.6488 112.294C71.8888 112.887 62.445 114.548 57.9738 100.872C53.5026 87.1962 59.0778 81.3404 65.3062 79.6522C71.5346 77.964 79.695 80.1076 82.731 94.1744Z" fill="#D3766A"/>
<path d="M57.3758 98.8894C58.9536 98.7284 62.8958 94.2066 62.6934 86.5614C62.6934 86.5614 62.3944 93.4384 61.9206 94.4642C61.4468 95.49 64.124 91.9204 64.0504 85.7518C64.0504 85.7518 67.5648 88.0518 70.4904 88.7648C73.416 89.4778 75.2146 89.3536 75.4124 89.1374C75.6102 88.9212 71.2724 87.7574 70.058 86.4602C70.058 86.4602 77.947 89.7354 81.5258 89.855C81.9398 89.855 82.0778 81.3634 76.4106 77.9962C70.7434 74.629 62.1506 78.8794 59.9196 81.2484C59.9196 81.2484 57.1596 81.759 54.3536 85.9634C51.5476 90.1678 55.66 99.0642 57.3758 98.8894Z" fill="#263238"/>
<path d="M60.2599 99.7588C60.2599 99.7588 56.5799 95.697 54.6985 97.0632C52.8171 98.4294 55.9773 104.593 58.4613 105.178C58.775 105.274 59.105 105.306 59.4314 105.272C59.7579 105.238 60.074 105.138 60.361 104.978C60.6479 104.819 60.8997 104.603 61.1013 104.344C61.3029 104.085 61.4501 103.788 61.5341 103.471L60.2599 99.7588Z" fill="#D3766A"/>
<path d="M55.6231 98.8112C55.5863 98.8112 55.5863 98.8664 55.6231 98.8756C57.3757 99.3356 58.4429 100.771 59.2617 102.293C58.6867 101.741 57.9737 101.488 57.2193 102.178C57.1825 102.215 57.2193 102.28 57.2791 102.266C57.559 102.135 57.8728 102.094 58.1769 102.149C58.481 102.205 58.7604 102.353 58.9765 102.574C59.338 102.946 59.6573 103.356 59.9287 103.798C60.0253 103.936 60.2829 103.825 60.2047 103.66C60.2047 103.66 60.2047 103.66 60.2047 103.623C59.9563 101.493 57.9277 98.733 55.6231 98.8112Z" fill="#263238"/>
<path d="M79.1615 92.8956C78.8211 92.8956 78.5083 92.868 78.1679 92.8496C77.8172 92.8823 77.4657 92.7965 77.1697 92.6058C77.087 92.5287 77.0321 92.4264 77.0138 92.3149C76.9955 92.2033 77.0147 92.0888 77.0685 91.9894C77.2052 91.81 77.3872 91.6703 77.5958 91.5846C77.8043 91.4989 78.032 91.4703 78.2553 91.5018C78.7176 91.4954 79.1661 91.6591 79.5157 91.9618C79.5904 92.0363 79.6419 92.1309 79.6641 92.2341C79.6863 92.3372 79.6782 92.4446 79.6407 92.5433C79.6033 92.642 79.5382 92.7277 79.4531 92.7902C79.3681 92.8527 79.2668 92.8893 79.1615 92.8956Z" fill="#263238"/>
<path d="M69.1149 92.8818C69.4276 92.7785 69.7347 92.6587 70.0349 92.523C70.3789 92.4422 70.6872 92.2517 70.9135 91.9802C70.9657 91.8804 70.984 91.7663 70.9658 91.6551C70.9475 91.544 70.8937 91.4417 70.8123 91.3638C70.6259 91.2355 70.4087 91.1594 70.1831 91.1432C69.9574 91.127 69.7316 91.1714 69.5289 91.2718C69.0871 91.4078 68.7127 91.705 68.4801 92.1044C68.4313 92.1992 68.4113 92.3061 68.4224 92.4121C68.4336 92.5181 68.4754 92.6185 68.5428 92.701C68.6102 92.7836 68.7003 92.8447 68.8019 92.8768C68.9035 92.9089 69.0123 92.9106 69.1149 92.8818Z" fill="#263238"/>
<path d="M72.036 96.456C72.036 96.4192 71.9716 96.5158 71.9762 96.5526C72.1878 97.5094 72.266 98.641 71.4564 99.1194C71.4288 99.1194 71.4564 99.1838 71.4564 99.1746C72.5052 98.8296 72.3856 97.33 72.036 96.456Z" fill="#263238"/>
<path d="M70.9918 95.6096C69.4232 95.7798 69.8786 98.9032 71.3322 98.7468C72.7858 98.5904 72.3074 95.467 70.9918 95.6096Z" fill="#263238"/>
<path d="M70.403 95.8626C70.1546 96.0788 69.943 96.433 69.6072 96.5112C69.2714 96.5894 68.8988 96.318 68.6044 96.0512C68.5722 96.0236 68.5492 96.0512 68.5538 96.0926C68.632 96.6952 68.954 97.2748 69.6072 97.2702C70.2604 97.2656 70.5502 96.6768 70.61 96.0512C70.6238 95.927 70.4996 95.7752 70.403 95.8626Z" fill="#263238"/>
<path d="M77.5605 95.2278C77.5605 95.191 77.6433 95.2646 77.6433 95.306C77.7491 96.2766 78.0297 97.376 78.9497 97.5784C78.9773 97.5784 78.9819 97.6336 78.9497 97.6336C77.8595 97.629 77.5007 96.18 77.5605 95.2278Z" fill="#263238"/>
<path d="M78.2875 94.0962C79.8285 93.765 80.3805 96.8562 78.9499 97.1828C77.5193 97.5094 76.9903 94.3768 78.2875 94.0962Z" fill="#263238"/>
<path d="M78.9681 94.1882C79.2441 94.3078 79.5431 94.5654 79.8375 94.5332C80.1319 94.501 80.3757 94.1146 80.5367 93.7512C80.5367 93.7144 80.5827 93.7512 80.5873 93.7788C80.7115 94.3676 80.6241 95.0208 80.0721 95.237C79.5201 95.4532 79.0969 94.9932 78.8531 94.4274C78.8071 94.34 78.8577 94.1376 78.9681 94.1882Z" fill="#263238"/>
<path d="M73.1123 103.913C73.3699 104.115 73.6321 104.405 73.9909 104.4C74.3522 104.357 74.7002 104.238 75.0121 104.051C75.0151 104.048 75.0187 104.045 75.0226 104.044C75.0266 104.042 75.0308 104.041 75.0351 104.041C75.0393 104.041 75.0436 104.042 75.0475 104.044C75.0515 104.045 75.0551 104.048 75.0581 104.051C75.0611 104.054 75.0635 104.057 75.0651 104.061C75.0668 104.065 75.0676 104.069 75.0676 104.074C75.0676 104.078 75.0668 104.082 75.0651 104.086C75.0635 104.09 75.0611 104.094 75.0581 104.097C74.9381 104.302 74.7649 104.471 74.5568 104.586C74.3487 104.701 74.1135 104.757 73.8759 104.75C73.672 104.718 73.4822 104.626 73.3306 104.486C73.1791 104.346 73.0726 104.164 73.0249 103.963C73.0019 103.908 73.0755 103.88 73.1123 103.913Z" fill="#263238"/>
<path d="M76.6037 99.7818C76.6037 99.7818 77.0637 101.419 77.1741 102.082C77.1741 102.146 74.8741 102.031 73.0663 102.505C72.9835 102.528 72.8869 102.385 73.0663 102.275C74.1933 101.636 76.5623 101.59 76.5623 101.59C76.5623 101.479 75.7481 99.193 75.8539 99.17C76.3898 99.1324 76.9284 99.168 77.4547 99.2758C76.6543 96.3088 75.3801 93.4936 74.6257 90.5358C74.6183 90.5136 74.6196 90.4894 74.6293 90.4681C74.6391 90.4468 74.6567 90.4301 74.6784 90.4213C74.7001 90.4125 74.7243 90.4123 74.7462 90.4208C74.768 90.4292 74.7858 90.4457 74.7959 90.4668C76.3415 93.3188 77.3397 96.7136 78.2459 99.7588C78.3793 100.145 76.8935 99.86 76.6037 99.7818Z" fill="#263238"/>
<path d="M72.9422 122.727C72.7628 122.547 73.1998 118.978 73.0296 118.835C72.5696 118.449 71.4656 119.548 69.506 119.479C66.0974 119.364 62.4312 116.103 61.6446 116.369C60.858 116.636 60.927 120.569 60.7246 120.684C60.5222 120.799 67.8408 127.317 70.1638 126.696C72.4868 126.075 72.9422 122.727 72.9422 122.727Z" fill="#FF7C65"/>
<path d="M71.7599 122.4C71.8381 121.567 71.9807 120.744 72.0221 119.907C72.026 119.892 72.0346 119.879 72.0467 119.87C72.0588 119.861 72.0736 119.855 72.0888 119.855C72.104 119.855 72.1188 119.861 72.1309 119.87C72.1429 119.879 72.1516 119.892 72.1555 119.907C72.2084 120.755 72.2084 121.607 72.1555 122.455C72.0899 123.284 71.9263 124.103 71.6679 124.893C71.6647 124.903 71.6583 124.912 71.6496 124.919C71.6409 124.925 71.6304 124.929 71.6196 124.929C71.6088 124.929 71.5983 124.925 71.5896 124.919C71.5809 124.912 71.5745 124.903 71.5713 124.893C71.5943 124.033 71.6817 123.205 71.7599 122.4Z" fill="#263238"/>
<path d="M69.7911 125.201C69.7911 125.008 69.8233 124.81 69.8417 124.617C69.8785 124.189 69.9245 123.762 69.9705 123.334C70.0165 122.906 70.0533 122.478 70.0901 122.05C70.1269 121.623 70.2005 121.199 70.1959 120.762C70.1959 120.675 70.3247 120.68 70.3293 120.762C70.3615 121.195 70.4443 121.618 70.4627 122.055C70.4787 122.501 70.4695 122.948 70.4351 123.394C70.4043 123.808 70.3459 124.22 70.2603 124.626C70.2189 124.838 70.1637 125.045 70.1039 125.247C70.0441 125.45 69.9245 125.68 69.8647 125.896C69.8647 125.951 69.7543 125.937 69.7635 125.896C69.7957 125.666 69.7727 125.427 69.7911 125.201Z" fill="#263238"/>
<path d="M68.1443 120.362C68.1443 120.284 68.2731 120.312 68.2777 120.385C68.3872 121.934 68.2316 123.489 67.8177 124.985C67.8177 124.995 67.8138 125.004 67.8069 125.011C67.8 125.018 67.7907 125.022 67.7809 125.022C67.7712 125.022 67.7618 125.018 67.7549 125.011C67.748 125.004 67.7441 124.995 67.7441 124.985C67.6751 123.433 67.8097 121.879 68.1443 120.362Z" fill="#263238"/>
<path d="M65.9409 121.816C65.9685 121.452 65.9777 121.089 66.0237 120.73C66.0448 120.385 66.0987 120.043 66.1847 119.709C66.1886 119.694 66.1973 119.681 66.2093 119.672C66.2214 119.663 66.2362 119.658 66.2514 119.658C66.2666 119.658 66.2814 119.663 66.2935 119.672C66.3056 119.681 66.3142 119.694 66.3181 119.709C66.3818 120.047 66.4065 120.391 66.3917 120.735C66.3917 121.107 66.3687 121.489 66.3411 121.862C66.2684 122.58 66.1516 123.293 65.9915 123.996C65.9915 124.056 65.8903 124.038 65.8949 123.996C65.9087 123.265 65.8857 122.538 65.9409 121.816Z" fill="#263238"/>
<path d="M64.2251 118.674C64.2251 118.6 64.3539 118.623 64.3539 118.697C64.4069 119.983 64.2784 121.27 63.9721 122.52C63.9721 122.529 63.9682 122.539 63.9613 122.546C63.9544 122.553 63.9451 122.556 63.9353 122.556C63.9255 122.556 63.9162 122.553 63.9093 122.546C63.9024 122.539 63.8985 122.529 63.8985 122.52C63.8242 121.229 63.9341 119.934 64.2251 118.674Z" fill="#263238"/>
<path d="M62.0677 119.488C62.0677 119.171 62.3897 117.708 62.4403 117.418C62.4403 117.322 62.5829 117.34 62.5737 117.441C62.5369 117.791 62.4403 119.162 62.3989 119.497C62.3115 120.164 62.2471 120.836 62.1459 121.498C62.1459 121.526 62.0953 121.54 62.0953 121.498C62.0338 120.83 62.0245 120.158 62.0677 119.488Z" fill="#263238"/>
<path d="M35.0888 189.063C44.4498 192.559 69.1288 177.678 83.5958 165.369C86.3558 163.027 63.7284 139.287 61.0558 142.083C58.25 145.075 55.2587 147.886 52.0996 150.501C51.2716 151.067 24.84 185.227 35.0888 189.063Z" fill="#D3766A"/>
<path d="M101.011 125.979C102.157 129.249 93.8538 131.384 93.8538 131.384C95.3004 131.758 96.5721 132.623 97.451 133.831C98.8908 136.039 96.071 139.264 96.071 139.264C97.491 139.961 98.6676 141.07 99.4474 142.447C100.616 144.696 98.2284 148.358 98.2284 148.358C99.1786 149.72 99.6079 151.379 99.4382 153.031C98.7988 157.424 92.368 159.724 88.6696 161.937C84.5583 164.506 80.663 167.406 77.0224 170.608L59.4734 143.726C59.4734 143.726 73.2412 127.497 78.154 126.066C82.2894 124.856 99.2634 120.979 101.011 125.979Z" fill="#D3766A"/>
<path d="M93.7572 131.315C89.0468 131.545 84.4008 132.902 79.9572 134.259C79.9371 134.265 79.9202 134.279 79.9103 134.297C79.9003 134.316 79.8982 134.338 79.9043 134.358C79.9104 134.378 79.9242 134.395 79.9428 134.405C79.9613 134.415 79.9831 134.417 80.0032 134.411C84.433 133.031 89.3412 132.759 93.8032 131.536C93.8276 131.525 93.8477 131.507 93.8601 131.483C93.8724 131.46 93.8761 131.432 93.8707 131.406C93.8653 131.38 93.851 131.357 93.8303 131.34C93.8096 131.324 93.7838 131.315 93.7572 131.315Z" fill="#263238"/>
<path d="M95.8317 138.96C94.7671 139.113 93.7276 139.407 92.7405 139.834C91.6671 140.22 90.5938 140.624 89.5205 141.044C87.3999 141.886 85.2977 142.773 83.2277 143.726C83.1357 143.767 83.1771 143.919 83.2737 143.877C85.3897 143.045 87.5149 142.24 89.6631 141.495C90.7395 141.124 91.8128 140.76 92.8831 140.404C93.924 140.134 94.9315 139.748 95.8869 139.254C95.9142 139.237 95.9358 139.212 95.9487 139.183C95.9617 139.153 95.9654 139.12 95.9594 139.088C95.9535 139.057 95.9381 139.027 95.9153 139.005C95.8926 138.982 95.8634 138.966 95.8317 138.96Z" fill="#263238"/>
<path d="M98.1318 148.39C97.2118 148.427 96.2366 148.974 95.3718 149.31C94.415 149.715 93.4536 150.11 92.4922 150.506C90.5694 151.288 88.6466 152.075 86.6916 152.806C86.595 152.843 86.6456 152.995 86.7422 152.958C88.7294 152.24 90.7212 151.55 92.7222 150.81C93.6943 150.451 94.6634 150.084 95.6294 149.71C96.4528 149.393 97.5154 149.094 98.1778 148.482C98.2146 148.454 98.1824 148.39 98.1318 148.39Z" fill="#263238"/>
<path d="M32.3195 188.065C41.9289 198.116 76.0655 172.209 76.0655 172.209L61.9159 140.966C61.9159 140.966 53.6865 150.018 53.1759 149.618C52.6653 149.218 22.7147 178.014 32.3195 188.065Z" fill="#FCF4F3"/>
<path d="M70.5823 171.997C68.4479 167.954 60.3289 151.104 58.8201 147.346C58.7143 147.084 58.8569 146.955 58.9995 147.212C65.6787 159.172 68.8481 167.834 70.7387 171.905C70.7847 172.006 70.6329 172.08 70.5823 171.997Z" fill="#263238"/>
<path d="M61.6905 141.076C60.7062 141.861 59.7835 142.721 58.9305 143.647C58.1347 144.443 57.3435 145.234 56.5615 146.039C54.8595 147.787 53.2035 149.572 51.5567 151.371C49.9099 153.169 48.2907 154.982 46.6899 156.817C45.0891 158.653 43.6125 160.58 42.0163 162.42C41.9473 162.503 42.0807 162.604 42.1543 162.521C43.7919 160.709 45.5537 159.002 47.2143 157.227L52.1547 152.006C53.8015 150.267 55.4575 148.542 57.0997 146.798C57.9047 145.947 58.7005 145.087 59.5009 144.232C60.4015 143.35 61.2393 142.406 62.0079 141.407C62.0335 141.362 62.0439 141.311 62.0376 141.259C62.0313 141.208 62.0086 141.16 61.9729 141.123C61.9372 141.086 61.8904 141.061 61.8395 141.053C61.7886 141.044 61.7363 141.052 61.6905 141.076Z" fill="#263238"/>
<path d="M75.9 171.477C75.808 171.266 75.6838 171.257 75.7206 171.505C75.7206 171.638 75.8034 171.873 75.8264 172.006C74.6304 172.798 70.3064 175.852 69.2714 176.606C67.0542 178.152 64.929 179.803 62.6014 181.174C35.1578 197.293 32.016 187.03 31.3536 186.772C31.2524 186.731 31.2938 186.795 31.3536 186.892C31.8136 187.734 35.2038 198.392 62.8958 181.745C65.2418 180.332 67.574 178.874 69.7958 177.292C70.9136 176.501 72.0084 175.677 73.0894 174.84C74.1729 174.094 75.1778 173.241 76.0886 172.292C76.1207 172.253 76.1415 172.207 76.1488 172.157C76.1562 172.108 76.1496 172.057 76.13 172.011C76.061 171.832 75.9828 171.652 75.9 171.477Z" fill="#263238"/>
<path d="M15.364 191.768L40.273 191.658L65.182 191.616L115 191.538L164.818 191.616L189.727 191.658L214.636 191.768L189.727 191.883L164.818 191.92L115 191.998L65.182 191.92L40.273 191.883L15.364 191.768Z" fill="#263238"/>
<path d="M141.505 195.154H82.6436V197.794H141.505V195.154Z" fill="#455A64"/>
<path d="M141.505 195.154H111.881V197.794H141.505V195.154Z" fill="#263238"/>
<path d="M115.069 197.789H172.435L179.933 158.832H122.567L115.069 197.789Z" fill="#455A64"/>
<path d="M144.007 178.308C143.959 178.753 144.006 179.203 144.145 179.629C144.284 180.054 144.511 180.445 144.813 180.775C145.114 181.106 145.483 181.369 145.893 181.546C146.304 181.724 146.748 181.812 147.195 181.804C148.146 181.787 149.058 181.421 149.758 180.777C150.458 180.133 150.898 179.255 150.995 178.308C151.043 177.864 150.996 177.414 150.858 176.989C150.719 176.564 150.491 176.173 150.189 175.843C149.888 175.513 149.519 175.25 149.109 175.073C148.698 174.897 148.254 174.809 147.807 174.817C146.857 174.834 145.945 175.199 145.245 175.842C144.545 176.486 144.105 177.363 144.007 178.308Z" fill="#263238"/>
<path d="M118.68 59.4168C118.357 62.4987 117.185 65.4304 115.293 67.8849C113.402 70.3393 110.865 72.2201 107.967 73.3173C105.069 74.4144 101.923 74.685 98.8806 74.0987C95.8378 73.5124 93.0177 72.0923 90.7348 69.9968L82.3674 71.225L86.5718 63.98C85.6068 61.6245 85.1922 59.0798 85.3595 56.5398C85.5269 53.9998 86.2718 51.5315 87.5375 49.3229C88.8032 47.1144 90.5563 45.2238 92.6632 43.7954C94.7702 42.367 97.1754 41.4383 99.6956 41.0801C102.216 40.7219 104.784 40.9437 107.206 41.7286C109.627 42.5134 111.838 43.8407 113.669 45.6091C115.5 47.3776 116.903 49.5406 117.771 51.9334C118.64 54.3262 118.95 56.8857 118.68 59.4168Z" fill="white"/>
<path d="M118.68 59.4168C118.357 62.4991 117.191 65.4327 115.308 67.8946C114.837 68.5067 114.33 69.0904 113.79 69.6426C113.233 70.1763 112.643 70.6741 112.024 71.133C109.543 73.0041 106.593 74.1534 103.5 74.4542C102.728 74.5248 101.951 74.5401 101.177 74.5002C100.405 74.4805 99.6359 74.399 98.8769 74.2564C95.7901 73.6935 92.9221 72.2786 90.5969 70.1716L90.7947 70.236L82.4365 71.5194L81.8293 71.6114L82.1375 71.0778L86.3005 63.8282L86.2775 64.1134C85.2973 61.7152 84.8804 59.124 85.059 56.5393C85.2377 53.9546 86.0071 51.4454 87.3079 49.2048C88.6111 46.9747 90.4024 45.0687 92.5473 43.6296C94.6916 42.2082 97.1301 41.2913 99.6797 40.9479C102.229 40.6045 104.823 40.8435 107.267 41.647C109.682 42.4695 111.882 43.8211 113.707 45.603C115.527 47.3794 116.92 49.5455 117.782 51.9383C118.643 54.3311 118.95 56.8881 118.68 59.4168ZM118.68 59.4168C118.944 56.9 118.628 54.3562 117.756 51.9807C116.883 49.6051 115.478 47.4611 113.648 45.7132C111.818 43.9654 109.612 42.6602 107.199 41.8979C104.786 41.1356 102.23 40.9365 99.7279 41.3158C97.2512 41.6915 94.892 42.6242 92.8279 44.0436C90.7858 45.4805 89.0798 47.3434 87.8277 49.5038C86.5932 51.6709 85.8665 54.0899 85.7025 56.5786C85.5471 59.0648 85.9495 61.5544 86.8801 63.865L86.9399 64.0168L86.8617 64.1548L82.6481 71.3722L82.3491 70.9122L90.7257 69.7392H90.8407L90.9235 69.8128C93.1547 71.9127 95.9288 73.3467 98.9321 73.9528C99.6793 74.1067 100.438 74.199 101.2 74.2288C101.966 74.2845 102.734 74.2845 103.5 74.2288C105.027 74.1127 106.531 73.7829 107.967 73.249C109.411 72.7251 110.77 71.992 112.001 71.0732C112.618 70.6167 113.208 70.1236 113.767 69.5966C114.311 69.0546 114.819 68.4784 115.29 67.8716C117.176 65.4191 118.35 62.4934 118.68 59.4168Z" fill="#263238"/>
<path d="M103.803 59.6238V61.588C103.808 61.7835 103.773 61.9779 103.7 62.1593C103.627 62.3408 103.518 62.5055 103.379 62.6436C103.241 62.7817 103.076 62.8902 102.894 62.9626C102.712 63.0349 102.518 63.0696 102.322 63.0646C101.931 63.0634 101.556 62.9074 101.279 62.6308C101.003 62.3541 100.847 61.9793 100.846 61.588V58.46C100.846 58.4278 100.878 58.4278 100.878 58.4002C100.878 58.3726 100.846 58.368 100.846 58.3358C100.857 57.9478 101.016 57.5789 101.291 57.3045C101.565 57.03 101.934 56.8708 102.322 56.8592C102.776 56.876 103.229 56.801 103.654 56.6387C104.078 56.4765 104.466 56.2303 104.793 55.9149C105.12 55.5995 105.381 55.2214 105.559 54.8031C105.736 54.3848 105.828 53.935 105.828 53.4805C105.828 53.026 105.736 52.5762 105.559 52.1579C105.381 51.7396 105.12 51.3615 104.793 51.0461C104.466 50.7307 104.078 50.4845 103.654 50.3223C103.229 50.16 102.776 50.085 102.322 50.1018C101.737 50.0997 101.161 50.2521 100.653 50.5437C100.145 50.8353 99.7225 51.2556 99.4288 51.7624C99.3308 51.9338 99.1996 52.0839 99.043 52.2042C98.8864 52.3244 98.7074 52.4123 98.5166 52.4628C98.3257 52.5133 98.1267 52.5254 97.9311 52.4984C97.7355 52.4713 97.5472 52.4056 97.3773 52.3052C97.2106 52.2067 97.0651 52.0761 96.9491 51.921C96.8331 51.766 96.749 51.5895 96.7015 51.4018C96.654 51.2141 96.6442 51.0188 96.6725 50.8273C96.7009 50.6358 96.7669 50.4517 96.8667 50.2858C97.393 49.3769 98.137 48.6131 99.0317 48.0629C99.9264 47.5128 100.944 47.1936 101.992 47.134C103.041 47.0745 104.088 47.2764 105.039 47.7217C105.991 48.167 106.816 48.8416 107.442 49.6851C108.068 50.5285 108.475 51.5142 108.625 52.5537C108.776 53.5931 108.666 54.6537 108.305 55.6401C107.944 56.6265 107.344 57.5078 106.558 58.2047C105.772 58.9017 104.826 59.3925 103.803 59.633V59.6238ZM103.803 66.2294V66.7722C103.809 66.9681 103.774 67.163 103.701 67.345C103.628 67.527 103.519 67.6923 103.381 67.8308C103.242 67.9694 103.077 68.0783 102.895 68.151C102.713 68.2236 102.518 68.2585 102.322 68.2534C101.93 68.2522 101.555 68.0956 101.278 67.8179C101.001 67.5403 100.846 67.1643 100.846 66.7722V66.2294C100.852 65.8396 101.009 65.4675 101.285 65.1919C101.56 64.9162 101.932 64.7587 102.322 64.7528C102.517 64.7503 102.71 64.7868 102.891 64.8601C103.071 64.9334 103.235 65.042 103.373 65.1795C103.511 65.3171 103.621 65.4808 103.694 65.6611C103.768 65.8414 103.805 66.0346 103.803 66.2294Z" fill="#FF7C65"/>
</svg>
